<?xml version="1.0" encoding="utf-8"?>
<!-- Generator: Adobe Illustrator 17.0.0, SVG Export Plug-In . SVG Version: 6.00 Build 0)  -->
<!DOCTYPE svg PUBLIC "-//W3C//DTD SVG 1.1//EN" "http://www.w3.org/Graphics/SVG/1.1/DTD/svg11.dtd">
<svg version="1.1" id="Layer_1" xmlns="http://www.w3.org/2000/svg" xmlns:xlink="http://www.w3.org/1999/xlink" x="0px" y="0px"
	 width="120px" height="120px" viewBox="0 0 120 120" enable-background="new 0 0 120 120" xml:space="preserve">
<g>
	<path fill-rule="evenodd" clip-rule="evenodd" fill="#FFFFFF" d="M76.555,100.73c-0.514-1.537-1.387-3.019-2.231-4.452
		c-1.572-2.667-3.057-5.186-2.34-7.931c0.271-1.037,0.826-2.146,1.564-3.123c1.019-1.348,1.827-3.466,1.044-5.368
		c-0.539-1.306-1.435-1.501-1.921-1.501c-1.42,0-2.684,1.51-4.071,3.334c-0.253,0.333-0.46,0.611-0.602,0.757
		c-0.454,0.466-1.171,0.768-1.826,0.768c-0.335,0-0.808-0.081-1.157-0.465c-0.594-0.654-0.779-2.066-0.844-2.603
		c-0.076-6.406-0.161-12.979-0.247-19.606l-0.177-14.677c-0.116-9.827-0.232-19.579-0.339-28.88c0.009-0.089,0.02-0.179,0.032-0.263
		c0.057-0.366,0.202-0.702,0.353-1.014l0.287-0.589c0.087-0.185,0.174-0.373,0.25-0.571l0.079-0.241l-0.097-1.345
		c0.061,0.015,0.12,0.038,0.186,0.038c0.446,0,0.808-0.362,0.808-0.808c0-0.446-0.362-0.808-0.808-0.808
		c-0.105,0-0.204,0.023-0.296,0.06l-0.037-0.512c0.057,0.013,0.11,0.034,0.17,0.034c0.446,0,0.808-0.362,0.808-0.808
		c0-0.446-0.362-0.808-0.808-0.808c-0.099,0-0.192,0.024-0.28,0.057l-0.048-0.662c0.065,0.017,0.128,0.04,0.199,0.04
		c0.446,0,0.808-0.362,0.808-0.808c0-0.447-0.362-0.808-0.808-0.808c-0.109,0-0.213,0.023-0.308,0.062l-0.043-0.598
		c0.031,0.004,0.058,0.018,0.089,0.018c0.446,0,0.808-0.362,0.808-0.808c0-0.446-0.362-0.808-0.808-0.808
		c-0.072,0-0.136,0.023-0.202,0.041l-0.166-2.292h-6.81l-0.172,2.374c-0.042-0.007-0.079-0.025-0.123-0.025
		c-0.446,0-0.808,0.361-0.808,0.808c0,0.446,0.362,0.808,0.808,0.808c0.003,0,0.005-0.002,0.008-0.002l-0.04,0.555
		c-0.058-0.013-0.113-0.035-0.175-0.035c-0.446,0-0.808,0.362-0.808,0.808c0,0.446,0.362,0.808,0.808,0.808
		c0.022,0,0.041-0.011,0.062-0.013l-0.045,0.628c-0.08-0.026-0.161-0.05-0.249-0.05c-0.446,0-0.808,0.362-0.808,0.808
		c0,0.446,0.362,0.808,0.808,0.808c0.049,0,0.091-0.019,0.137-0.028l-0.037,0.509c-0.096-0.04-0.202-0.063-0.313-0.063
		c-0.446,0-0.808,0.362-0.808,0.808c0,0.446,0.362,0.808,0.808,0.808c0.072,0,0.137-0.023,0.203-0.041l-0.058,0.808l-0.021,0.49
		l0.067,0.174c0.08,0.206,0.171,0.403,0.26,0.589l0.286,0.588c0.173,0.365,0.299,0.677,0.353,1.017
		c0.017,0.103,0.028,0.206,0.034,0.212c-0.114,10.124-0.24,20.783-0.368,31.492l-0.344,27.708c-0.168-0.061-0.313-0.124-0.404-0.182
		c-1.615-1.024-2.345-3.25-3.002-5.256c-0.175-0.532-0.334-1.07-0.494-1.607c-0.163-0.549-0.326-1.097-0.504-1.64
		c-0.041-0.126-0.083-0.316-0.136-0.541c-0.318-1.363-0.852-3.643-2.632-3.643c-0.366,0-0.735,0.11-1.1,0.327
		c-1.082,0.646-1.813,1.938-2.235,3.947c-0.308,1.463-0.311,3.077-0.007,5.077c0.332,2.198,1.027,4.301,1.7,6.336
		c0.381,1.15,0.774,2.341,1.089,3.513c0.353,1.313,0.744,3.03,0.646,4.655c-0.163,2.716-1.479,4.94-2.871,7.296
		c-1.986,3.359-4.039,6.832-2.998,11.979c0.841,4.154,4.795,6.977,8.215,8.231c2.394,0.879,5.002,1.129,7.465,1.269
		c0.652,0.037,1.344,0.06,2.059,0.06c0.001,0,0.001,0,0.001,0c4.568,0,10.658-0.868,13.725-5.004
		c0.758-1.023,1.743-2.809,2.022-4.476C77.034,104.91,77.135,102.466,76.555,100.73z M74.799,106.146
		c-0.206,1.231-0.98,2.703-1.657,3.614c-2.706,3.65-8.753,4.195-12.117,4.195c0,0,0,0-0.001,0c-0.676,0-1.329-0.021-1.945-0.056
		c-2.668-0.151-4.86-0.405-6.889-1.149c-2.779-1.021-6.266-3.4-6.943-6.751c-0.89-4.395,0.883-7.392,2.759-10.564
		c1.452-2.457,2.954-4.997,3.146-8.195c0.115-1.912-0.319-3.833-0.711-5.292c-0.329-1.228-0.731-2.446-1.121-3.624
		c-0.677-2.045-1.315-3.977-1.623-6.007c-0.266-1.756-0.27-3.144-0.013-4.366c0.369-1.76,0.913-2.408,1.304-2.641
		c0.013-0.008,0.024-0.014,0.034-0.02c0.318,0.336,0.621,1.63,0.725,2.072c0.068,0.294,0.129,0.543,0.183,0.708
		c0.172,0.525,0.33,1.056,0.487,1.587c0.165,0.556,0.33,1.111,0.524,1.703c0.711,2.17,1.597,4.871,3.817,6.281
		c0.642,0.406,1.764,0.666,1.982,0.714l1.465,0.057l0.372-29.963c0.128-10.709,0.254-21.369,0.368-31.493l0.001-0.057l-0.005-0.052
		c-0.014-0.147-0.031-0.292-0.055-0.438c-0.096-0.61-0.308-1.112-0.523-1.567l-0.285-0.585c-0.04-0.083-0.079-0.167-0.117-0.253
		l0.667-9.221h3.088l0.671,9.234c-0.037,0.083-0.075,0.164-0.112,0.243l-0.283,0.582c-0.206,0.426-0.429,0.945-0.527,1.576
		c-0.021,0.146-0.039,0.296-0.054,0.534c0.112,9.883,0.235,20.276,0.36,30.728l0.154,12.887c0.086,6.644,0.171,13.235,0.248,19.657
		l0.007,0.106c0.146,1.217,0.431,2.744,1.355,3.763c0.656,0.723,1.593,1.121,2.638,1.121c1.203,0,2.422-0.513,3.259-1.372
		c0.202-0.208,0.449-0.531,0.761-0.941c0.453-0.597,1.803-2.369,2.418-2.533c0.03,0.041,0.078,0.118,0.133,0.251
		c0.464,1.125-0.136,2.534-0.79,3.4c-0.893,1.182-1.569,2.54-1.904,3.823c-0.927,3.55,0.842,6.551,2.552,9.452
		c0.829,1.405,1.611,2.733,2.059,4.071C75.092,102.662,75.041,104.701,74.799,106.146z"/>
	<rect x="54.868" y="92.396" fill-rule="evenodd" clip-rule="evenodd" fill="#FFFFFF" width="10.255" height="2.873"/>
	<rect x="54.868" y="97.034" fill-rule="evenodd" clip-rule="evenodd" fill="#FFFFFF" width="10.255" height="2.873"/>
	<rect x="54.869" y="101.82" fill-rule="evenodd" clip-rule="evenodd" fill="#FFFFFF" width="10.255" height="2.873"/>
</g>
</svg>
