<?xml version="1.0" encoding="utf-8"?>
<!-- Generator: Adobe Illustrator 17.0.0, SVG Export Plug-In . SVG Version: 6.00 Build 0)  -->
<!DOCTYPE svg PUBLIC "-//W3C//DTD SVG 1.1//EN" "http://www.w3.org/Graphics/SVG/1.1/DTD/svg11.dtd">
<svg version="1.1" id="Layer_1" xmlns="http://www.w3.org/2000/svg" xmlns:xlink="http://www.w3.org/1999/xlink" x="0px" y="0px"
	 width="120px" height="120px" viewBox="0 0 120 120" enable-background="new 0 0 120 120" xml:space="preserve">
<path fill="#FFFFFF" d="M61.299,59L80.543,6.363c0.575-0.224,1.144-0.795,1.485-1.574c0.526-1.203,0.308-2.433-0.487-2.747
	c-0.794-0.314-1.864,0.406-2.39,1.609c-0.356,0.814-0.364,1.634-0.09,2.181L60.209,56.093L41.356,5.831
	c0.274-0.547,0.266-1.367-0.09-2.181c-0.526-1.203-1.596-1.923-2.39-1.609c-0.794,0.314-1.012,1.544-0.487,2.747
	c0.341,0.78,0.91,1.35,1.485,1.574L59.119,59l-20.876,55.655c-0.384,1.036,0.103,2.144,0.511,2.281s1.518-0.435,1.901-1.472
	l19.553-53.482l19.553,53.482c0.384,1.036,1.493,1.609,1.901,1.472s0.895-1.245,0.511-2.281L61.299,59z"/>
</svg>
