<?xml version="1.0" encoding="utf-8"?>
<!-- Generator: Adobe Illustrator 17.0.0, SVG Export Plug-In . SVG Version: 6.00 Build 0)  -->
<!DOCTYPE svg PUBLIC "-//W3C//DTD SVG 1.1//EN" "http://www.w3.org/Graphics/SVG/1.1/DTD/svg11.dtd">
<svg version="1.1" id="Layer_1" xmlns="http://www.w3.org/2000/svg" xmlns:xlink="http://www.w3.org/1999/xlink" x="0px" y="0px"
	 width="120px" height="120px" viewBox="0 0 120 120" enable-background="new 0 0 120 120" xml:space="preserve">
<path fill="#FFFFFF" d="M82.621,18.29v1.737h-6.195v-1.435c0-9.098-7.476-16.5-16.664-16.5s-16.664,7.402-16.664,16.5v1.435h-6.346
	V18.29h-2v23.015c0,12.217,10.367,22.236,23.407,22.968v49.751h-14.12v2h31.445v-2H60.159V64.308
	c13.531-0.234,24.462-10.46,24.462-23.004V18.29H82.621z M72.588,48.546H46.935c-1.031-1.836-1.657-3.917-1.792-6.128H74.38
	C74.245,44.629,73.619,46.71,72.588,48.546z M71.229,50.546c-2.689,3.339-6.826,5.488-11.467,5.488s-8.779-2.15-11.467-5.488H71.229
	z M45.153,17.505H74.37c0.027,0.36,0.056,0.72,0.056,1.086v5.117H45.098v-5.117C45.098,18.225,45.126,17.865,45.153,17.505z
	 M74.084,15.505H45.44c0.414-1.878,1.195-3.62,2.268-5.15h24.108C72.889,11.885,73.67,13.627,74.084,15.505z M74.426,40.417H45.098
	v-6.128h29.328V40.417z M74.426,32.289H45.098v-6.581h29.328V32.289z M59.762,4.091c4.049,0,7.719,1.631,10.375,4.264h-20.75
	C52.043,5.723,55.713,4.091,59.762,4.091z M59.687,62.319c-12.646,0-22.935-9.427-22.935-21.015V22.026h6.346v19.508
	c0,9.098,7.476,16.5,16.664,16.5c5.83,0,10.963-2.986,13.941-7.488h0.079v-0.129c1.665-2.568,2.644-5.612,2.644-8.883V22.026h6.195
	v19.278C82.621,52.892,72.333,62.319,59.687,62.319z"/>
</svg>
