<?xml version="1.0" encoding="utf-8"?>
<!-- Generated by IcoMoon.io -->
<!DOCTYPE svg PUBLIC "-//W3C//DTD SVG 1.1//EN" "http://www.w3.org/Graphics/SVG/1.1/DTD/svg11.dtd">
<svg version="1.1" xmlns="http://www.w3.org/2000/svg" xmlns:xlink="http://www.w3.org/1999/xlink" width="32" height="32" viewBox="0 0 32 32">
<g id="icomoon-ignore">
</g>
<path d="M20.415 26.861c-0.137-0.41-0.37-0.805-0.595-1.187-0.419-0.711-0.815-1.383-0.624-2.115 0.072-0.277 0.22-0.572 0.417-0.833 0.272-0.359 0.487-0.924 0.278-1.431-0.144-0.348-0.383-0.4-0.512-0.4-0.379 0-0.716 0.403-1.086 0.889-0.067 0.089-0.123 0.163-0.161 0.202-0.121 0.124-0.312 0.205-0.487 0.205-0.089 0-0.215-0.022-0.309-0.124-0.158-0.174-0.208-0.551-0.225-0.694-0.020-1.708-0.043-3.461-0.066-5.228l-0.047-3.914c-0.031-2.621-0.062-5.221-0.090-7.701 0.002-0.024 0.005-0.048 0.009-0.070 0.015-0.098 0.054-0.187 0.094-0.27l0.077-0.157c0.023-0.049 0.046-0.099 0.067-0.152l0.021-0.064-0.026-0.359c0.016 0.004 0.032 0.010 0.050 0.010 0.119 0 0.215-0.097 0.215-0.215s-0.097-0.215-0.215-0.215c-0.028 0-0.054 0.006-0.079 0.016l-0.010-0.137c0.015 0.003 0.029 0.009 0.045 0.009 0.119 0 0.215-0.097 0.215-0.215s-0.097-0.215-0.215-0.215c-0.026 0-0.051 0.006-0.075 0.015l-0.013-0.177c0.017 0.005 0.034 0.011 0.053 0.011 0.119 0 0.215-0.097 0.215-0.215s-0.097-0.215-0.215-0.215c-0.029 0-0.057 0.006-0.082 0.017l-0.011-0.159c0.008 0.001 0.015 0.005 0.024 0.005 0.119 0 0.215-0.097 0.215-0.215s-0.097-0.215-0.215-0.215c-0.019 0-0.036 0.006-0.054 0.011l-0.044-0.611h-1.816l-0.046 0.633c-0.011-0.002-0.021-0.007-0.033-0.007-0.119 0-0.215 0.096-0.215 0.215s0.097 0.215 0.215 0.215c0.001 0 0.001-0.001 0.002-0.001l-0.011 0.148c-0.015-0.003-0.030-0.009-0.047-0.009-0.119 0-0.215 0.097-0.215 0.215s0.097 0.215 0.215 0.215c0.006 0 0.011-0.003 0.017-0.003l-0.012 0.167c-0.021-0.007-0.043-0.013-0.066-0.013-0.119 0-0.215 0.097-0.215 0.215s0.097 0.215 0.215 0.215c0.013 0 0.024-0.005 0.037-0.007l-0.010 0.136c-0.026-0.011-0.054-0.017-0.083-0.017-0.119 0-0.215 0.097-0.215 0.215s0.097 0.215 0.215 0.215c0.019 0 0.037-0.006 0.054-0.011l-0.015 0.215-0.006 0.131 0.018 0.046c0.021 0.055 0.046 0.107 0.069 0.157l0.076 0.157c0.046 0.097 0.080 0.181 0.094 0.271 0.005 0.027 0.007 0.055 0.009 0.057-0.030 2.7-0.064 5.542-0.098 8.398l-0.092 7.389c-0.045-0.016-0.083-0.033-0.108-0.049-0.431-0.273-0.625-0.867-0.801-1.402-0.047-0.142-0.089-0.285-0.132-0.429-0.043-0.146-0.087-0.293-0.134-0.437-0.011-0.034-0.022-0.084-0.036-0.144-0.085-0.363-0.227-0.971-0.702-0.971-0.098 0-0.196 0.029-0.293 0.087-0.289 0.172-0.483 0.517-0.596 1.053-0.082 0.39-0.083 0.821-0.002 1.354 0.089 0.586 0.274 1.147 0.453 1.69 0.102 0.307 0.206 0.624 0.29 0.937 0.094 0.35 0.198 0.808 0.172 1.241-0.043 0.724-0.394 1.317-0.766 1.946-0.53 0.896-1.077 1.822-0.799 3.194 0.224 1.108 1.279 1.861 2.191 2.195 0.638 0.234 1.334 0.301 1.991 0.338 0.174 0.010 0.358 0.016 0.549 0.016 0 0 0 0 0 0 1.218 0 2.842-0.231 3.66-1.334 0.202-0.273 0.465-0.749 0.539-1.194 0.070-0.417 0.097-1.069-0.057-1.532zM19.946 28.306c-0.055 0.328-0.261 0.721-0.442 0.964-0.722 0.973-2.334 1.119-3.231 1.119 0 0 0 0-0 0-0.18 0-0.354-0.006-0.519-0.015-0.711-0.040-1.296-0.108-1.837-0.306-0.741-0.272-1.671-0.907-1.851-1.8-0.237-1.172 0.235-1.971 0.736-2.817 0.387-0.655 0.788-1.333 0.839-2.185 0.031-0.51-0.085-1.022-0.19-1.411-0.088-0.327-0.195-0.652-0.299-0.966-0.181-0.545-0.351-1.061-0.433-1.602-0.071-0.468-0.072-0.838-0.003-1.164 0.098-0.469 0.243-0.642 0.348-0.704 0.003-0.002 0.006-0.004 0.009-0.005 0.085 0.090 0.166 0.435 0.193 0.553 0.018 0.078 0.034 0.145 0.049 0.189 0.046 0.14 0.088 0.282 0.13 0.423 0.044 0.148 0.088 0.296 0.14 0.454 0.19 0.579 0.426 1.299 1.018 1.675 0.171 0.108 0.47 0.178 0.529 0.19l0.391 0.015 0.099-7.99c0.034-2.856 0.068-5.698 0.098-8.398l0-0.015-0.001-0.014c-0.004-0.039-0.008-0.078-0.015-0.117-0.026-0.163-0.082-0.297-0.139-0.418l-0.076-0.156c-0.011-0.022-0.021-0.045-0.031-0.067l0.178-2.459h0.823l0.179 2.462c-0.010 0.022-0.020 0.044-0.030 0.065l-0.075 0.155c-0.055 0.114-0.114 0.252-0.141 0.42-0.006 0.039-0.010 0.079-0.014 0.142 0.030 2.635 0.063 5.407 0.096 8.194l0.041 3.437c0.023 1.772 0.046 3.529 0.066 5.242l0.002 0.028c0.039 0.325 0.115 0.732 0.361 1.003 0.175 0.193 0.425 0.299 0.703 0.299 0.321 0 0.646-0.137 0.869-0.366 0.054-0.055 0.12-0.142 0.203-0.251 0.121-0.159 0.481-0.632 0.645-0.675 0.008 0.011 0.021 0.031 0.035 0.067 0.124 0.3-0.036 0.676-0.211 0.907-0.238 0.315-0.418 0.677-0.508 1.019-0.247 0.947 0.225 1.747 0.681 2.521 0.221 0.375 0.43 0.729 0.549 1.086 0.115 0.346 0.101 0.89 0.037 1.275z" fill="#000000"></path>
<path d="M14.631 24.639h2.735v0.766h-2.735v-0.766z" fill="#000000"></path>
<path d="M14.631 25.876h2.735v0.766h-2.735v-0.766z" fill="#000000"></path>
<path d="M14.632 27.152h2.735v0.766h-2.735v-0.766z" fill="#000000"></path>
</svg>
