<?xml version="1.0" encoding="utf-8"?>
<!-- Generated by IcoMoon.io -->
<!DOCTYPE svg PUBLIC "-//W3C//DTD SVG 1.1//EN" "http://www.w3.org/Graphics/SVG/1.1/DTD/svg11.dtd">
<svg version="1.1" xmlns="http://www.w3.org/2000/svg" xmlns:xlink="http://www.w3.org/1999/xlink" width="32" height="32" viewBox="0 0 32 32">
<g id="icomoon-ignore">
</g>
<path d="M22.572 4.721v-1.254h-1.6v1.254h-9.92v-1.254h-1.6v1.254h-5.634v24.546h24.387v-24.546h-5.633zM26.606 27.666h-21.188v-21.346h4.034v1.713h1.6v-1.713h9.92v1.713h1.6v-1.713h4.034v21.346z" fill="#000000"></path>
<path d="M8.778 15.564h3.291v3.429h-3.291v-3.429z" fill="#000000"></path>
<path d="M14.349 15.564h3.291v3.429h-3.291v-3.429z" fill="#000000"></path>
<path d="M20.046 15.564h3.291v3.429h-3.291v-3.429z" fill="#000000"></path>
<path d="M8.778 21.202h3.291v3.429h-3.291v-3.429z" fill="#000000"></path>
<path d="M14.349 21.202h3.291v3.429h-3.291v-3.429z" fill="#000000"></path>
<path d="M20.046 21.202h3.291v3.429h-3.291v-3.429z" fill="#000000"></path>
</svg>
