<?xml version="1.0" encoding="utf-8"?>
<!-- Generated by IcoMoon.io -->
<!DOCTYPE svg PUBLIC "-//W3C//DTD SVG 1.1//EN" "http://www.w3.org/Graphics/SVG/1.1/DTD/svg11.dtd">
<svg version="1.1" xmlns="http://www.w3.org/2000/svg" xmlns:xlink="http://www.w3.org/1999/xlink" width="32" height="32" viewBox="0 0 32 32">
<g id="icomoon-ignore">
</g>
<path d="M16.471 3.466c-7.058 0-12.8 5.742-12.8 12.8s5.742 12.8 12.8 12.8 12.8-5.742 12.8-12.8-5.742-12.8-12.8-12.8zM16.471 27.466c-6.176 0-11.2-5.024-11.2-11.2s5.024-11.2 11.2-11.2 11.2 5.024 11.2 11.2-5.024 11.2-11.2 11.2z" fill="#000000"></path>
<path d="M16.471 11.921c-2.396 0-4.346 1.95-4.346 4.346s1.95 4.346 4.346 4.346 4.346-1.95 4.346-4.346-1.95-4.346-4.346-4.346zM16.471 19.012c-1.514 0-2.746-1.232-2.746-2.746s1.232-2.746 2.746-2.746 2.746 1.232 2.746 2.746c0 1.514-1.232 2.746-2.746 2.746z" fill="#000000"></path>
<path d="M9.634 16.539v-0.8h-1.6v0.8c0 4.652 3.784 8.436 8.437 8.436h0.8v-1.6h-0.8c-3.77 0.001-6.837-3.066-6.837-6.836z" fill="#000000"></path>
</svg>
