<?xml version="1.0" encoding="utf-8"?>
<!-- Generated by IcoMoon.io -->
<!DOCTYPE svg PUBLIC "-//W3C//DTD SVG 1.1//EN" "http://www.w3.org/Graphics/SVG/1.1/DTD/svg11.dtd">
<svg version="1.1" xmlns="http://www.w3.org/2000/svg" xmlns:xlink="http://www.w3.org/1999/xlink" width="32" height="32" viewBox="0 0 32 32">
<g id="icomoon-ignore">
</g>
<path d="M16.346 15.733l5.132-14.037c0.153-0.060 0.305-0.212 0.396-0.42 0.14-0.321 0.082-0.649-0.13-0.733s-0.497 0.108-0.637 0.429c-0.095 0.217-0.097 0.436-0.024 0.582l-5.027 13.403-5.027-13.403c0.073-0.146 0.071-0.365-0.024-0.582-0.14-0.321-0.426-0.513-0.637-0.429s-0.27 0.412-0.13 0.733c0.091 0.208 0.243 0.36 0.396 0.42l5.132 14.037-5.567 14.841c-0.102 0.276 0.027 0.572 0.136 0.608s0.405-0.116 0.507-0.393l5.214-14.262 5.214 14.262c0.102 0.276 0.398 0.429 0.507 0.393s0.239-0.332 0.136-0.608l-5.566-14.841z" fill="#000000"></path>
</svg>
