<?xml version="1.0" encoding="utf-8"?>
<!-- Generated by IcoMoon.io -->
<!DOCTYPE svg PUBLIC "-//W3C//DTD SVG 1.1//EN" "http://www.w3.org/Graphics/SVG/1.1/DTD/svg11.dtd">
<svg version="1.1" xmlns="http://www.w3.org/2000/svg" xmlns:xlink="http://www.w3.org/1999/xlink" width="32" height="32" viewBox="0 0 32 32">
<g id="icomoon-ignore">
</g>
<path d="M21.666 24.699c-0.11-0.325-0.266-0.663-0.475-1.035-0.255-0.453-0.495-0.881-0.949-1.293-0.325-0.296-0.674-0.649-0.712-1.1-0.033-0.398 0.151-0.683 0.366-1.014 0.131-0.203 0.267-0.413 0.365-0.666 0.15-0.387 0.161-1.015-0.114-1.417-0.209-0.305-0.555-0.424-0.942-0.319-0.25 0.069-0.456 0.2-0.656 0.327-0.291 0.186-0.539 0.334-0.835 0.262-0.226-0.055-0.443-0.222-0.501-1.065-0.016-0.234-0.019-0.489-0.019-0.807l-0.015-0.548c-0.041-1.47-0.094-3.087-0.147-4.725l-0.025-0.795c-0.045-1.479-0.090-2.96-0.131-4.358-0.005-0.177-0.010-0.343 0.014-0.499 0.015-0.094 0.049-0.179 0.096-0.279l0.038-0.079c0.041-0.083 0.081-0.167 0.116-0.258 0.021-0.057 0.038-0.118 0.048-0.18 0.014-0.081 0.018-0.169 0.015-0.254l0.006-0.112c0.030 0.012 0.062 0.019 0.097 0.019 0.147-0.001 0.266-0.12 0.266-0.267s-0.12-0.266-0.267-0.266c-0.024 0-0.046 0.008-0.068 0.014l0.011-0.205c0.031 0.013 0.065 0.020 0.101 0.020 0.147-0.001 0.266-0.12 0.266-0.267s-0.12-0.266-0.267-0.266c-0.026 0-0.049 0.008-0.072 0.015l0.012-0.222c0.032 0.014 0.067 0.021 0.104 0.021 0.147-0.001 0.266-0.12 0.266-0.267s-0.12-0.266-0.267-0.266c-0.027 0-0.051 0.008-0.075 0.015l0.011-0.195c0.040 0.024 0.084 0.041 0.134 0.041 0.147-0.001 0.266-0.12 0.266-0.267s-0.12-0.266-0.267-0.266c-0.032 0-0.061 0.008-0.090 0.018 0.003-0.030 0.008-0.062 0.010-0.091 0.007-0.076 0.011-0.152 0.008-0.21l0-0.033c0.001-0.059-0.004-0.118-0.015-0.176-0.041-0.208-0.159-0.388-0.334-0.507-0.039-0.027-0.080-0.050-0.123-0.069-0.137-0.062-0.293-0.095-0.483-0.106-0.152-0.014-0.326-0.013-0.435-0.009l-0.131-0.001c-0.102 0-0.209 0.003-0.306 0.012-0.199 0.012-0.354 0.047-0.491 0.109-0.043 0.020-0.084 0.043-0.122 0.070-0.174 0.12-0.291 0.301-0.331 0.509-0.011 0.059-0.016 0.118-0.014 0.169l0 0.025c-0.002 0.073 0.002 0.148 0.009 0.216 0.003 0.045 0.008 0.090 0.013 0.134-0.031-0.013-0.065-0.020-0.101-0.020-0.147 0.001-0.266 0.12-0.266 0.267s0.12 0.266 0.267 0.266c0.054-0 0.102-0.021 0.144-0.049l0.013 0.203c-0.027-0.009-0.056-0.017-0.086-0.017-0.147 0.001-0.266 0.12-0.266 0.267s0.12 0.266 0.267 0.266c0.041 0 0.079-0.011 0.114-0.029l0.014 0.231c-0.027-0.009-0.054-0.017-0.083-0.017-0.147 0.001-0.266 0.12-0.266 0.267s0.12 0.266 0.267 0.266c0.040 0 0.078-0.011 0.112-0.027l0.013 0.213c-0.026-0.008-0.051-0.016-0.080-0.016-0.147 0.001-0.266 0.12-0.266 0.267s0.12 0.266 0.267 0.266c0.039 0 0.075-0.009 0.109-0.025l0.004 0.063c-0.002 0.106 0.003 0.193 0.017 0.276 0.011 0.061 0.026 0.12 0.049 0.179 0.034 0.089 0.075 0.172 0.116 0.254l0.040 0.081c0.048 0.099 0.083 0.184 0.098 0.278 0.024 0.154 0.021 0.319 0.016 0.509-0.033 1.431-0.071 2.96-0.108 4.485l-0.017 0.658c-0.044 1.621-0.086 3.221-0.118 4.678-1.998 0.126-3.021 0.726-3.31 1.935-0.23 0.965 0.104 1.67 0.399 2.291 0.22 0.464 0.41 0.865 0.348 1.314-0.053 0.385-0.417 0.764-0.739 1.098-0.178 0.186-0.347 0.361-0.453 0.53-0.514 0.817-0.816 1.561-0.897 2.211-0.253 2.028 0.682 3.856 2.501 4.889 0.736 0.418 1.669 0.622 2.85 0.622 0.334 0 0.693-0.016 1.096-0.049 2.225-0.182 4.707-1.606 5.145-3.979 0.129-0.7 0.071-1.442-0.169-2.145zM21.311 26.749c-0.389 2.109-2.641 3.379-4.664 3.544-0.389 0.032-0.733 0.047-1.053 0.047-1.087 0-1.933-0.181-2.587-0.552-1.626-0.923-2.461-2.553-2.236-4.359 0.071-0.572 0.347-1.242 0.82-1.994 0.077-0.123 0.227-0.279 0.386-0.444 0.359-0.373 0.805-0.838 0.882-1.394 0.084-0.607-0.159-1.12-0.394-1.616-0.282-0.594-0.549-1.156-0.362-1.939 0.234-0.982 1.119-1.441 2.961-1.534l0.353-0.018 0.006-0.248c0.033-1.522 0.078-3.211 0.124-4.923l0.016-0.659c0.038-1.525 0.075-3.055 0.109-4.501 0.005-0.191 0.009-0.388-0.023-0.591-0.027-0.167-0.088-0.309-0.143-0.425l-0.043-0.087c-0.034-0.067-0.068-0.135-0.096-0.209-0.010-0.027-0.017-0.054-0.021-0.079-0.008-0.047-0.011-0.102-0.010-0.195l-0.149-2.44c-0.019-0.121-0.034-0.242-0.043-0.373-0.006-0.053-0.008-0.106-0.007-0.157l-0.001-0.049c-0.001-0.019 0.001-0.039 0.005-0.060 0.013-0.070 0.052-0.13 0.11-0.169 0.013-0.009 0.027-0.017 0.042-0.024 0.074-0.034 0.17-0.054 0.31-0.062 0.089-0.009 0.179-0.011 0.264-0.011l0.133 0.001c0.118-0.003 0.247-0.006 0.395 0.008 0.131 0.007 0.227 0.026 0.303 0.060 0.015 0.006 0.029 0.014 0.042 0.023 0.058 0.039 0.097 0.099 0.11 0.169 0.004 0.020 0.006 0.040 0.005 0.067v0.041c0.002 0.051-0.001 0.103-0.007 0.165-0.008 0.122-0.022 0.244-0.043 0.39l-0.133 2.438c0.002 0.073-0.001 0.127-0.008 0.174-0.005 0.027-0.011 0.054-0.021 0.079-0.028 0.074-0.062 0.143-0.095 0.212l-0.041 0.085c-0.055 0.117-0.115 0.258-0.141 0.427-0.031 0.203-0.026 0.402-0.020 0.605 0.040 1.389 0.086 2.869 0.131 4.349l0.025 0.796c0.054 1.638 0.106 3.253 0.147 4.723l0.015 0.54c0 0.323 0.004 0.589 0.021 0.837 0.043 0.629 0.185 1.373 0.907 1.547 0.095 0.023 0.192 0.035 0.286 0.035 0.388 0 0.693-0.194 0.961-0.365 0.174-0.111 0.339-0.216 0.511-0.263 0.166-0.045 0.277-0.018 0.361 0.106 0.156 0.228 0.155 0.669 0.057 0.923-0.078 0.202-0.194 0.38-0.316 0.569-0.233 0.36-0.497 0.769-0.449 1.348 0.051 0.613 0.455 1.059 0.884 1.45 0.363 0.33 0.561 0.659 0.842 1.16 0.193 0.343 0.335 0.653 0.435 0.946 0.21 0.617 0.261 1.266 0.148 1.878z" fill="#000000"></path>
<path d="M13.872 18.58c0 0.353-0.286 0.639-0.639 0.639s-0.639-0.286-0.639-0.639c0-0.353 0.286-0.639 0.639-0.639s0.639 0.286 0.639 0.639z" fill="#000000"></path>
<path d="M17.31 21.917l-2.517 0.007c-0.245 0.001-0.443 0.172-0.442 0.382l0.002 0.674c0.001 0.21 0.199 0.38 0.444 0.379l2.517-0.007c0.245-0.001 0.443-0.172 0.442-0.382l-0.002-0.674c-0-0.21-0.199-0.38-0.444-0.379z" fill="#000000"></path>
<path d="M17.304 24.195l-2.517 0.007c-0.245 0.001-0.443 0.172-0.442 0.382l0.002 0.674c0.001 0.21 0.2 0.38 0.444 0.379l2.517-0.007c0.245-0.001 0.443-0.172 0.442-0.382l-0.002-0.674c-0-0.21-0.199-0.38-0.444-0.379z" fill="#000000"></path>
</svg>
