<?xml version="1.0" encoding="utf-8"?>
<!-- Generated by IcoMoon.io -->
<!DOCTYPE svg PUBLIC "-//W3C//DTD SVG 1.1//EN" "http://www.w3.org/Graphics/SVG/1.1/DTD/svg11.dtd">
<svg version="1.1" xmlns="http://www.w3.org/2000/svg" xmlns:xlink="http://www.w3.org/1999/xlink" width="64" height="64" viewBox="0 0 64 64">
<g id="icomoon-ignore">
</g>
<path d="M43.332 49.398c-0.221-0.649-0.532-1.326-0.95-2.070-0.51-0.906-0.99-1.762-1.898-2.586-0.65-0.591-1.348-1.298-1.424-2.2-0.066-0.796 0.303-1.367 0.731-2.028 0.262-0.406 0.534-0.826 0.731-1.331 0.3-0.774 0.322-2.030-0.228-2.834-0.418-0.611-1.109-0.849-1.883-0.637-0.5 0.137-0.913 0.4-1.312 0.655-0.583 0.371-1.078 0.667-1.671 0.524-0.452-0.11-0.886-0.444-1.001-2.131-0.032-0.467-0.038-0.978-0.039-1.615l-0.030-1.096c-0.083-2.941-0.187-6.174-0.295-9.45l-0.049-1.591c-0.090-2.959-0.181-5.92-0.262-8.716-0.010-0.353-0.019-0.686 0.028-0.998 0.029-0.189 0.098-0.359 0.191-0.557l0.076-0.157c0.081-0.166 0.163-0.334 0.231-0.516 0.043-0.115 0.076-0.236 0.096-0.361 0.027-0.163 0.037-0.338 0.030-0.508l0.012-0.223c0.060 0.023 0.125 0.039 0.194 0.038 0.294-0.001 0.532-0.24 0.531-0.534s-0.24-0.532-0.534-0.531c-0.049 0-0.092 0.015-0.137 0.028l0.022-0.41c0.062 0.026 0.13 0.041 0.202 0.040 0.294-0.001 0.532-0.241 0.531-0.534s-0.24-0.532-0.534-0.532c-0.051 0-0.098 0.016-0.145 0.030l0.024-0.445c0.064 0.027 0.134 0.042 0.208 0.042 0.294-0.001 0.532-0.24 0.532-0.534s-0.24-0.532-0.534-0.531c-0.054 0-0.102 0.016-0.151 0.031l0.021-0.389c0.080 0.048 0.169 0.083 0.269 0.083 0.294-0.001 0.532-0.24 0.531-0.534s-0.24-0.532-0.534-0.531c-0.063 0-0.123 0.016-0.179 0.037 0.005-0.060 0.017-0.123 0.020-0.182 0.015-0.153 0.021-0.303 0.017-0.42l0.001-0.065c0.003-0.117-0.007-0.236-0.030-0.353-0.082-0.416-0.319-0.777-0.667-1.013-0.078-0.053-0.161-0.1-0.247-0.139-0.273-0.123-0.586-0.19-0.965-0.211-0.304-0.027-0.652-0.025-0.87-0.019l-0.262-0.002c-0.204 0-0.419 0.006-0.612 0.025-0.397 0.025-0.709 0.094-0.982 0.219-0.086 0.040-0.168 0.087-0.245 0.14-0.347 0.24-0.582 0.601-0.661 1.018-0.022 0.117-0.032 0.236-0.028 0.338l0.001 0.051c-0.004 0.146 0.004 0.297 0.018 0.432 0.006 0.091 0.017 0.179 0.026 0.268-0.062-0.025-0.13-0.040-0.201-0.040-0.294 0.001-0.532 0.24-0.531 0.534s0.24 0.532 0.534 0.531c0.109-0.001 0.204-0.041 0.288-0.097l0.025 0.407c-0.055-0.019-0.111-0.035-0.172-0.034-0.294 0.001-0.532 0.24-0.531 0.534s0.24 0.532 0.534 0.531c0.083 0 0.159-0.023 0.229-0.057l0.028 0.463c-0.053-0.018-0.108-0.034-0.167-0.033-0.294 0.001-0.532 0.24-0.531 0.534s0.241 0.532 0.534 0.531c0.081 0 0.155-0.021 0.223-0.053l0.026 0.426c-0.051-0.016-0.103-0.032-0.16-0.032-0.294 0.001-0.532 0.24-0.531 0.534s0.24 0.532 0.534 0.531c0.078 0 0.15-0.019 0.217-0.049l0.007 0.125c-0.004 0.212 0.007 0.386 0.035 0.553 0.021 0.121 0.053 0.241 0.099 0.358 0.069 0.179 0.15 0.345 0.231 0.508l0.079 0.163c0.095 0.198 0.165 0.369 0.195 0.556 0.049 0.309 0.041 0.639 0.033 1.019-0.066 2.862-0.142 5.921-0.217 8.971l-0.033 1.317c-0.087 3.242-0.172 6.441-0.237 9.357-3.996 0.253-6.042 1.452-6.619 3.87-0.461 1.931 0.207 3.339 0.797 4.582 0.44 0.929 0.821 1.73 0.697 2.628-0.107 0.77-0.835 1.528-1.478 2.196-0.356 0.371-0.693 0.722-0.906 1.059-1.029 1.635-1.633 3.123-1.795 4.422-0.506 4.056 1.364 7.711 5.003 9.778 1.473 0.836 3.337 1.243 5.7 1.243 0.668 0 1.386-0.032 2.192-0.098 4.451-0.363 9.414-3.213 10.29-7.958 0.258-1.401 0.141-2.885-0.339-4.291zM42.621 53.497c-0.779 4.218-5.282 6.758-9.327 7.088-0.778 0.063-1.467 0.094-2.106 0.094-2.174 0-3.866-0.361-5.173-1.103-3.251-1.846-4.922-5.106-4.471-8.719 0.143-1.144 0.694-2.485 1.639-3.987 0.154-0.245 0.454-0.557 0.772-0.887 0.717-0.747 1.611-1.676 1.765-2.789 0.169-1.213-0.318-2.239-0.789-3.232-0.564-1.189-1.097-2.312-0.723-3.877 0.469-1.963 2.239-2.881 5.921-3.069l0.706-0.036 0.011-0.496c0.066-3.045 0.155-6.421 0.248-9.846l0.033-1.318c0.076-3.051 0.151-6.109 0.218-9.002 0.009-0.382 0.018-0.777-0.046-1.181-0.054-0.335-0.175-0.618-0.287-0.849l-0.085-0.175c-0.067-0.134-0.135-0.27-0.191-0.417-0.020-0.053-0.034-0.108-0.043-0.158-0.016-0.094-0.022-0.205-0.020-0.391l-0.299-4.881c-0.037-0.242-0.068-0.485-0.086-0.746-0.011-0.106-0.017-0.212-0.014-0.314l-0.001-0.097c-0.001-0.039 0.002-0.079 0.010-0.119 0.027-0.139 0.105-0.259 0.219-0.339 0.026-0.018 0.055-0.035 0.084-0.048 0.149-0.068 0.341-0.108 0.621-0.125 0.178-0.017 0.358-0.021 0.529-0.021l0.265 0.002c0.236-0.006 0.494-0.011 0.789 0.016 0.262 0.014 0.454 0.052 0.605 0.121 0.030 0.013 0.057 0.029 0.083 0.046 0.115 0.078 0.194 0.198 0.221 0.338 0.009 0.040 0.011 0.080 0.011 0.135v0.082c0.003 0.101-0.002 0.206-0.013 0.329-0.015 0.244-0.045 0.487-0.086 0.779l-0.266 4.876c0.004 0.146-0.001 0.254-0.017 0.348-0.009 0.054-0.022 0.107-0.042 0.159-0.056 0.149-0.124 0.287-0.191 0.423l-0.082 0.169c-0.11 0.233-0.231 0.516-0.282 0.853-0.062 0.406-0.051 0.804-0.039 1.21 0.081 2.777 0.171 5.738 0.261 8.698l0.049 1.592c0.108 3.275 0.211 6.507 0.294 9.446l0.030 1.079c0.001 0.645 0.008 1.177 0.041 1.674 0.086 1.257 0.37 2.745 1.814 3.095 0.191 0.046 0.383 0.069 0.572 0.069 0.776 0 1.386-0.388 1.923-0.731 0.348-0.222 0.677-0.431 1.021-0.526 0.332-0.090 0.553-0.035 0.721 0.211 0.312 0.456 0.31 1.338 0.114 1.845-0.156 0.403-0.387 0.76-0.632 1.138-0.466 0.721-0.995 1.537-0.898 2.696 0.102 1.227 0.91 2.119 1.769 2.9 0.726 0.66 1.122 1.317 1.685 2.32 0.387 0.686 0.671 1.305 0.871 1.892 0.419 1.234 0.522 2.532 0.297 3.755z" fill="#000000"></path>
<path d="M27.743 37.159c0 0.706-0.573 1.279-1.279 1.279s-1.279-0.573-1.279-1.279c0-0.706 0.573-1.279 1.279-1.279s1.279 0.573 1.279 1.279z" fill="#000000"></path>
<path d="M34.621 43.834l-5.034 0.015c-0.49 0.002-0.885 0.343-0.884 0.764l0.004 1.349c0.001 0.42 0.399 0.76 0.889 0.758l5.034-0.015c0.49-0.002 0.885-0.343 0.884-0.764l-0.004-1.349c-0.001-0.42-0.398-0.759-0.888-0.758z" fill="#000000"></path>
<path d="M34.607 48.39l-5.034 0.015c-0.49 0.002-0.885 0.343-0.884 0.764l0.004 1.349c0.001 0.42 0.399 0.76 0.889 0.758l5.034-0.014c0.49-0.002 0.885-0.343 0.884-0.764l-0.004-1.349c-0.001-0.42-0.398-0.76-0.889-0.759z" fill="#000000"></path>
</svg>
