<?xml version="1.0" encoding="utf-8"?>
<!-- Generated by IcoMoon.io -->
<!DOCTYPE svg PUBLIC "-//W3C//DTD SVG 1.1//EN" "http://www.w3.org/Graphics/SVG/1.1/DTD/svg11.dtd">
<svg version="1.1" xmlns="http://www.w3.org/2000/svg" xmlns:xlink="http://www.w3.org/1999/xlink" width="32" height="32" viewBox="0 0 32 32">
<g id="icomoon-ignore">
</g>
<path d="M5.1 20.848c-0.157 0.29-0.205 0.626-0.173 0.953 0.003 0.027 0.006 0.054 0.009 0.082s0.008 0.054 0.013 0.082c0.005 0.025 0.009 0.050 0.015 0.075 0.010 0.042 0.023 0.083 0.036 0.124 0.023 0.071 0.050 0.139 0.082 0.206 0.025 0.053 0.052 0.106 0.082 0.157s0.062 0.102 0.097 0.151c0.019 0.028 0.039 0.055 0.060 0.082s0.044 0.055 0.066 0.082c0.103 0.121 0.22 0.231 0.345 0.329 0.067 0.053 0.137 0.102 0.209 0.147 0.015 0.009 0.031 0.017 0.047 0.026 0.001-0.043 0.064-0.129 0.098-0.119 0.081 0.025-0.013 0.122-0.040 0.133-0.007 0.003-0.013 0.005-0.019 0.007 0.014 0.007 0.027 0.015 0.040 0.022 0.584 0.296 1.266 0.348 1.911 0.307 0.886-0.055 1.738-0.369 2.479-0.851 0.041-0.027 0.082-0.054 0.123-0.082 0.039-0.027 0.077-0.054 0.115-0.082 0.068-0.049 0.135-0.099 0.201-0.151 0.476-0.393 0.847-0.899 1.121-1.449-0.006-0.061 0.024-0.145 0.080-0.163 0.013-0.027 0.026-0.054 0.038-0.081 0.041-0.090 0.081-0.182 0.118-0.274-0.087 0.030-0.251 0.011-0.195-0.098 0.125-0.037 0.129 0.048 0.214 0.051 0.107-0.269 0.197-0.545 0.276-0.824-0.015-0.009-0.035-0.030-0.066-0.027 0.009-0.045 0.057-0.051 0.082-0.031 0.112-0.407 0.201-0.821 0.28-1.234 0.275-1.334 0.549-2.668 0.824-4.002-0.011-0.010-0.020-0.019-0.022-0.021-0.002-0.004-0.047-0.011-0.047-0.015 0.010-0.075 0.050-0.075 0.085-0.047 0.142-0.689 0.284-1.378 0.426-2.067-0.032-0.019-0.054-0.044-0.074-0.069 0.058-0.056 0.089-0.164 0.137-0.24 0.019-0.093 0.038-0.186 0.057-0.278-0.047-0.033-0.078-0.073-0.033-0.153-0.058-0.013-0.007-0.077 0 0 0.021 0.002 0.042 0.005 0.063 0.008 0.009-0.045 0.018-0.089 0.027-0.133-0.102-0.022-0.111 0.048-0.169 0.049-0.048 0.001-0.042-0.073-0.079-0.077-0.097-0.012-0.26 0.115-0.311 0.004 0.038-0.053 0.091-0.077 0.171-0.049 0.053-0.119-0.17-0.095-0.081-0.232 0.165-0.074 0.332 0.089 0.345 0.213 0.063-0.002 0.111-0.033 0.158-0.068 0.003-0.017 0.007-0.034 0.010-0.051 0.118-0.573 0.236-1.146 0.354-1.719-0.021 0.002-0.047 0.002-0.081-0.003 0.013-0.090 0.063-0.102 0.099-0.086 0.023-0.11 0.045-0.219 0.068-0.329 0.531 0.001 1.064-0.002 1.596 0.002-0.144 0.712-0.289 1.423-0.434 2.135-0.188 0.921-0.376 1.842-0.564 2.762-0.001 0.003-0.001 0.007-0.002 0.010-0.116 0.566-0.231 1.132-0.347 1.698 0.076-0.001 0.19 0.035 0.137-0.095 0.259-0.021-0.025 0.353-0.098 0.147-0.016 0-0.033 0-0.049 0-0.211 1.033-0.422 2.066-0.632 3.099 0.226-0.001-0.012 0.258-0.016 0.078-0.092 0.454-0.184 0.908-0.276 1.362 0.054 0.052 0.227-0.014 0.186 0.134-0.029-0.063-0.167-0.018-0.197-0.080-0.037 0.183-0.074 0.367-0.111 0.55-0.008 0.042-0.017 0.083-0.025 0.125-0.501 0.012-1.001 0.022-1.501 0.016-0.051 0.235-0.096 0.47-0.14 0.707 0.625 0.007 1.25-0.002 1.875-0.008-0.043-0.080-0.064-0.18-0.048-0.227 0.002-0.007 0.088 0.003 0.098 0 0.002-0-0.001-0.049 0-0.049 0.056 0.008 0.251 0.145 0.246 0.246 0 0-0.011 0.011-0.027 0.027 0.293-0.003 0.585-0.004 0.878-0.003 1.171 0.010 2.342-0.020 3.513-0.014 0.015-0.076 0.032-0.153 0.048-0.229-0.027 0.017-0.074 0.030-0.083 0.021-0.021-0.020 0.060-0.053 0.090-0.052 0.031-0.149 0.063-0.297 0.093-0.446-0.313-0.002-0.626-0.001-0.939-0.001-0.006 0.073 0.016 0.176-0.049 0.191-0.026 0.138-0.072 0.255-0.098 0.393-0.024 0.058-0.083-0.398-0.137-0.319-0.004 0.007-0.008 0.015-0.011 0.025 0.004-0.011 0.007-0.019 0.011-0.025 0.034-0.060 0.106-0.066 0.235-0.074 0.008-0.068-0.013-0.164 0.036-0.191-0.305 0-0.609 0.001-0.914-0.001 0.008-0.038 0.015-0.075 0.023-0.113 0.155-0.754 0.309-1.507 0.462-2.261-0.023 0.044-0.051 0.059-0.051-0.041 0-0.007-0.004-0.045 0-0.049 0.046-0.046 0.068-0.047 0.075-0.030 0.049-0.242 0.099-0.485 0.149-0.727-0.038-0.006-0.082-0.010-0.128-0.015-0.072-0.008-0.031-0.086-0.188-0.060 0.099-0.091 0.054-0.299 0.104-0.328 0.041-0.023 0.168-0.010 0.289 0.023 0.168-0.824 0.335-1.649 0.505-2.473 0.634 0.008 1.305-0.054 1.894 0.231 0.289 0.136 0.492 0.402 0.593 0.7 0.111 0.304 0.177 0.618 0.219 0.936 0.004-0.027 0.028-0.050 0.056-0.042 0.062 0.042-0.018 0.039-0.030 0.094-0.012-0.007-0.019-0.016-0.023-0.025 0.008 0.066 0.015 0.132 0.022 0.198 0.002-0.003 0.004-0.006 0.006-0.009 0.016 0 0.033 0 0.049 0-0.005-0.059 0.072-0.030 0 0 0.002 0.063-0.020 0.102-0.044 0.139 0.031 0.401 0.034 0.806 0.046 1.205 0.014 0.218 0.030 0.441 0.056 0.663 0.040-0.053 0.015-0.17 0.139-0.138-0.051 0.045-0.018 0.173-0.137 0.15 0.035 0.287 0.087 0.573 0.18 0.843 0.020-0.103 0.090-0.185 0.203-0.107 0.204-0.047 0.010 0.147 0 0-0.13 0.061-0.151 0.129-0.147 0.197 0.002 0.035 0.156 0.043 0.147 0.098-0.045 0.034-0.082 0.046-0.112 0.043 0.062 0.138 0.136 0.27 0.226 0.395 0.105 0.142 0.223 0.271 0.351 0.389 0.493 0.454 1.139 0.737 1.802 0.831 0.061 0.009 0.123 0.016 0.185 0.023 0.002-0.003 0.004-0.005 0.006-0.008 0.005 0.004 0.007 0.007 0.011 0.011 1.033 0.111 2.117-0.017 3.030-0.538-0.052-0.106-0.105-0.212-0.158-0.318-0.052-0.104-0.104-0.208-0.157-0.312-0.343 0.125-0.71 0.273-1.081 0.182-0.080-0.022-0.161-0.051-0.239-0.088-0.039 0.040-0.126 0.128-0.129 0.129-0.133 0.007-0.226-0.257-0.197-0.345 0.001-0.002 0.006-0.002 0.015-0.002-0.065-0.070-0.115-0.152-0.146-0.247-0.297-0.819-0.171-1.71-0.355-2.551-0.143-0.726-0.467-1.441-1.034-1.934-0.553-0.504-1.25-0.8-1.931-1.084 0.775-0.083 1.552-0.199 2.295-0.446 0.463-0.151 0.914-0.367 1.309-0.656-0.142-0.032-0.032-0.188 0.003-0.343 0.127 0.054 0.146 0.17 0.117 0.252 0.244-0.194 0.463-0.417 0.645-0.673 0.327-0.445 0.492-0.997 0.483-1.547-0.002-0.145-0.016-0.289-0.042-0.431-0.112-0.621-0.469-1.173-0.916-1.608-0.29-0.263-0.651-0.434-1.020-0.552-0.698-0.217-1.435-0.267-2.161-0.28-0.599 0.007-1.198-0.014-1.796 0.014-0.843 0-1.685 0-2.528-0 0.027 0.023 0.017 0.093 0.038 0.103 0.012 0.006 0.145-0.009 0.147 0 0.020 0.079-0.285 0.017-0.197 0.246-0.143-0.001-0.116-0.278-0.049-0.344 0.003-0.002 0.006-0.003 0.010-0.004-0.209 0-0.418 0-0.626-0-0.923 0.028-1.848 0.009-2.771 0.014-0.723-0.004-1.447 0.001-2.17 0.006-0.012 0.018-0.031 0.023-0.060 0.001-0.814 0.006-1.629 0.012-2.443 0.007-0.046 0.231-0.093 0.461-0.142 0.692 0.604-0.008 1.208-0.020 1.813-0.010-0.149 0.716-0.297 1.431-0.445 2.147-0.451 2.182-0.901 4.364-1.351 6.546 0.013-0.008 0.027-0.011 0.033-0.006 0.022 0.022-0.022 0.054-0.042 0.052-0.029 0.141-0.058 0.282-0.087 0.423 0.109 0.019 0.313 0.013 0.265-0.071 0.034 0.060 0.075 0.16 0.019 0.264-0.005 0.009-0.127-0.050-0.141-0.045-0.022 0.010 0.021 0.096 0.017 0.109-0.066 0.209-0.179-0.052-0.188-0.060-0.004-0.003-0.008-0.006-0.012-0.009-0.101 0.486-0.201 0.973-0.302 1.459 0.146 0.053 0.021 0.197-0.014 0.067-0.065 0.312-0.129 0.624-0.193 0.936-0.020 0.098-0.041 0.196-0.061 0.294-0.129 0.546-0.286 1.115-0.656 1.55-0.009 0.010-0.017 0.021-0.027 0.032-0.015 0.017-0.031 0.034-0.047 0.050-0.030 0.030-0.063 0.057-0.097 0.082-0.238 0.173-0.559 0.225-0.84 0.128-0.065-0.024-0.124-0.070-0.161-0.128-0.016-0.025-0.027-0.053-0.033-0.082-0.006-0.026-0.006-0.054-0.001-0.082 0.002-0.010 0.004-0.020 0.007-0.030 0.024-0.057 0.056-0.107 0.092-0.155 0.015-0.029 0.035-0.055 0.060-0.073 0.041-0.047 0.085-0.092 0.127-0.138-0.046 0.022-0.044-0.032-0.021-0.045 0.037-0.019 0.045 0.006 0.037 0.026 0.081-0.090 0.155-0.184 0.191-0.304 0.119-0.356 0.133-0.774-0.010-1.126-0.054-0.134-0.131-0.258-0.234-0.365-0.391-0.393-1.003-0.528-1.529-0.368-0.371 0.113-0.669 0.399-0.855 0.733-0.003 0.004-0.006 0.009-0.009 0.014zM13.975 12.207c0.032-0.017 0.049 0.053 0.032 0.062-0.032 0.016-0.050-0.053-0.032-0.062zM12.501 21.249c-0.026-0.026 0.035-0.063 0.049-0.049 0.026 0.025-0.036 0.062-0.049 0.049zM14.271 20.167c0.013-0.077 0.108-0.034 0.147 0-0.005-0.060 0.071-0.030 0 0-0.013 0.077-0.107 0.034-0.147 0zM14.252 20.645c0-0.056 0.049-0.027 0.049 0 0 0.056-0.049 0.027-0.049 0zM14.351 20.793c-0.025-0.026 0.036-0.063 0.049-0.049 0.025 0.025-0.036 0.063-0.049 0.049zM14.4 20.891c-0.025-0.026 0.035-0.063 0.049-0.049 0.025 0.026-0.036 0.063-0.049 0.049zM14.468 19.97c0.012-0.062 0.098-0.050 0.098 0-0.022 0.071-0.043-0.005-0.098 0zM14.566 21.052c-0.025-0.025 0.035-0.063 0.049-0.049 0.025 0.026-0.036 0.063-0.049 0.049zM14.813 20.511c-0.026-0.026 0.036-0.063 0.049-0.049 0.026 0.025-0.036 0.063-0.049 0.049zM14.861 16.773c-0.025-0.026 0.036-0.063 0.049-0.049 0.026 0.026-0.035 0.063-0.049 0.049zM14.911 21.494c-0.025-0.025 0.035-0.063 0.049-0.049 0.025 0.026-0.036 0.063-0.049 0.049zM18.187 21.334c0.152 0.16-0.154 0.273 0 0v0zM17.548 18.383c0.026 0.025-0.035 0.063-0.049 0.049-0.025-0.025 0.036-0.063 0.049-0.049zM25.762 21.383c0.003-0.001-0.002-0.049 0-0.049 0.267-0.014 0.025 0.398-0.098 0.246-0.015-0.018-0.053-0.134 0.098-0.197zM24.090 19.612c-0.126 0.259-0.381-0.125 0 0v0zM24.256 19.527c-0.017-0.009-0.032-0.020-0.044-0.034-0.018 0.074-0.073 0.163-0.073 0.021 0-0.007-0.004-0.045 0-0.049 0.016-0.016 0.029-0.026 0.039-0.032-0.011-0.030-0.017-0.065-0.020-0.102 0.086 0.045 0.189 0.11 0.098 0.197zM24.434 20.694c-0.059 0.005-0.030-0.071 0 0 0.194 0.014-0.009 0.217 0 0zM24.532 21.039c-0.026-0.026 0.035-0.063 0.049-0.049 0.026 0.025-0.035 0.062-0.049 0.049zM24.778 20.842c-0.033 0.066-0.105 0.092-0.197 0.098-0.050-0.148 0.11-0.087 0.197-0.098zM23.794 18.924c0.249 0.027 0.535 0.299 0.639-0.049 0.079-0.014 0.085 0.046 0.148 0.049-0.076 0.088-0.082 0.246-0.295 0.197 0.020 0.095 0.191 0.039 0.147 0.197-0.083 0.027-0.119-0.063-0.197-0.098-0.028-0.013-0.162-0.022-0.197-0.049-0.030-0.023-0.014-0.126-0.049-0.147-0.052-0.031-0.261 0.068-0.197-0.098zM23.745 19.662c0.189 0.248-0.278 0.169 0 0v0zM21.729 16.907c0.008-0.058 0.090-0.041 0.147-0.049 0 0.049 0 0.098 0 0.147-0.064-0.017-0.077-0.086-0.147-0.098zM21.876 16.17c0.203 0.104 0.459-0.050 0.344 0.197-0.018 0.039-0.136 0.248-0.197 0.246-0.031-0.001-0.149-0.153-0.148-0.147-0.021-0.064 0.084-0.204 0-0.295zM22.171 17.006c0.175-0.031 0.005 0.219-0.049 0.147 0.002 0.003 0.044-0.093 0.049-0.098 0.003-0.003-0.003-0.048 0-0.049zM22.073 16.957c0.059-0.104 0.097-0.195 0.147-0.394 0.025 0.113 0.138 0.429-0.147 0.394zM21.876 17.203c0.022-0.072 0.043 0.005 0.098 0-0.012 0.062-0.098 0.049-0.098 0zM21.974 17.399c-0.025-0.026 0.036-0.063 0.049-0.050 0.025 0.026-0.036 0.063-0.049 0.050zM22.27 20.203c-0.025-0.026 0.035-0.063 0.049-0.049 0.025 0.025-0.036 0.062-0.049 0.049zM22.368 19.17c-0.025-0.025 0.036-0.063 0.049-0.049 0.025 0.026-0.036 0.063-0.049 0.049zM22.466 19.17c-0.026-0.025 0.035-0.063 0.049-0.049 0.026 0.026-0.035 0.063-0.049 0.049zM22.526 19.883c-0.032 0.017-0.049-0.053-0.032-0.062 0.032-0.017 0.049 0.053 0.032 0.062zM22.565 19.268c0.214 0.032 0.159 0.333 0.246 0.492-0.282-0.065-0.102-0.289-0.246-0.492zM22.86 20.154c-0.026-0.026 0.035-0.063 0.049-0.049 0.025 0.026-0.035 0.063-0.049 0.049zM22.909 20.35c-0.026-0.026 0.035-0.063 0.049-0.049 0.026 0.025-0.035 0.063-0.049 0.049zM22.958 19.17c0.012-0.062 0.098-0.049 0.098 0-0.044 0.030-0.088 0.060-0.098 0zM23.155 20.055c-0.227 0.194-0.154-0.342 0.049-0.148-0.003 0.063-0.063 0.068-0.049 0.148 0.194 0.014-0.009 0.217 0 0zM23.057 19.416c0.139-0.041 0.127 0.069 0.246 0.049 0.009 0.080-0.322 0.099-0.246-0.049zM23.549 17.94c0.026 0.026-0.035 0.063-0.049 0.049-0.026-0.025 0.035-0.063 0.049-0.049zM23.549 20.154c0.026 0.025-0.035 0.062-0.049 0.049-0.026-0.026 0.035-0.063 0.049-0.049zM23.352 18.776c-0.080 0.078-0.143-0.086-0.246-0.049-0.001 0.001-0.088 0.097-0.049 0.098-0.088-0.002-0.407-0.172-0.541-0.098-0.050 0.114-0.303 0.094-0.443 0.049 0.096-0.069 0.33-0.147 0.443-0.049 0.007-0.082 0.121-0.033 0.197-0.049 0.077-0.016 0.161-0.097 0.197-0.098 0.153-0.006 0.402 0.035 0.443 0.197zM22.171 18.58c0-0.056 0.049-0.027 0.049 0 0 0.055-0.049 0.027-0.049 0zM22.565 18.334c0-0.056 0.049-0.027 0.049 0 0 0.056-0.049 0.027-0.049 0zM22.811 18.235c-0.025 0.054-0.295 0.049-0.147-0.098 0.094-0.094 0.195-0.004 0.147 0.098zM22.86 18.481c-0.019 0.093-0.063-0.031-0.049-0.098 0.019-0.094 0.063 0.031 0.049 0.098zM23.303 17.891c0.025 0.026-0.035 0.063-0.049 0.049-0.025-0.025 0.036-0.063 0.049-0.049zM22.909 16.858c-0.005-0.059 0.071-0.030 0 0 0.005 0.059-0.071 0.030 0 0zM22.86 17.793c0.167 0.013 0.169 0.192 0.344 0.197-0.035 0.115-0.222 0.235-0.344 0.147-0.078-0.056-0.050-0.291 0-0.344zM22.614 17.104c-0.046-0.052-0.182-0.015-0.147-0.147 0.127-0.030 0.177 0.019 0.147 0.147zM22.515 15.333c-0.008 0.057-0.090 0.041-0.147 0.049 0.008-0.057 0.090-0.041 0.147-0.049zM22.466 16.76c0.023 0.023-0.085 0.063-0.098 0.049-0.023-0.023 0.085-0.063 0.098-0.049zM22.466 17.842c0.028-0.022 0.117-0.022 0.147-0.049 0.005-0.005-0.033-0.317 0.049-0.394 0.079-0.014 0.085 0.047 0.147 0.049-0.007 0.090-0.009 0.175-0.049 0.246-0.074 0.133-0.279 0.195-0.295 0.295s0.122 0.111 0.098 0.246c-0.071 0.027-0.254-0.058-0.246 0.049-0.146-0.086 0.082-0.208 0.098-0.295-0.088-0.097-0.281 0.024-0.393-0.049 0.028-0.103 0.122-0.14 0.098-0.295 0.142-0.072 0.222 0.293 0.344 0.196zM22.319 15.629c0.001 0.144-0.138 0.059-0.197 0.049-0.041-0.007-0.053 0.048-0.049 0.049-0.069-0.014-0.126-0.228-0.147-0.049-0.101-0.215 0.266-0.122 0.394-0.049zM21.778 15.776c-0.059 0.005-0.030-0.071 0 0 0.049 0 0.098 0 0.147 0 0.070 0.383-0.396 0.167-0.147 0zM25.884 11.916c0.013 0.008-0.004 0.13 0 0.148 0.033 0.141 0.136 0.092 0.049 0.246 0.204-0.047 0.010 0.147 0 0-0.163 0.046-0.1-0.176-0.147-0.197-0.060-0.026-0.158 0.090-0.197 0.049-0.060-0.063 0.142-0.218-0.049-0.197 0.087-0.061 0.251-0.106 0.344-0.049zM24.999 12.113c0 0.056-0.049 0.027-0.049 0 0-0.056 0.049-0.027 0.049 0zM24.786 12.987c0 0.056-0.049 0.027-0.049 0 0-0.056 0.049-0.027 0.049 0zM20.745 15.481c0.022-0.061 0.063-0.101 0.147-0.098-0.021 0.061-0.063 0.101-0.147 0.098zM20.858 15.068c0.058 0.013 0.007 0.077 0 0-0.058-0.013-0.007-0.077 0 0zM20.846 14.135c0.032-0.017 0.049 0.053 0.032 0.062-0.032 0.017-0.049-0.053-0.032-0.062zM20.997 16.093c-0.055-0.030-0.018-0.108 0.030-0.094 0.062 0.043-0.018 0.040-0.030 0.094zM21.434 19.022c-0.003 0.030-0.007 0.058-0.049 0.049-0.011 0.038-0.041 0.057-0.098 0.049 0.005 0.060-0.071 0.030 0 0 0.011-0.038 0.041-0.057 0.098-0.049 0.003-0.030 0.007-0.058 0.049-0.049-0.035-0.15 0.050-0.179 0.049-0.295 0.119 0.044 0.021 0.277-0.049 0.295zM21.434 17.35c0.022-0.071 0.043 0.005 0.098 0-0.012 0.062-0.098 0.050-0.098 0zM21.502 16.477c-0.025-0.025 0.035-0.063 0.049-0.049 0.025 0.026-0.036 0.063-0.049 0.049zM21.668 19.662c-0.105-0.024-0.137-0.086-0.096-0.185 0.028 0.064 0.168 0.069 0.096 0.185zM22.884 12.211c-0.025-0.025 0.036-0.062 0.049-0.049 0.025 0.026-0.036 0.063-0.049 0.049zM23.223 9.421c0.016 0.051 0.030 0.102-0.030 0.094-0.055-0.030-0.017-0.108 0.030-0.094zM23.126 9.079c0.032-0.017 0.049 0.053 0.032 0.062-0.032 0.017-0.049-0.053-0.032-0.062zM22.361 8.888c0.081-0.146 0.202-0.216 0.403-0.13-0.135 0.187-0.077 0.296-0.197 0.454-0.145-0.003-0.1-0.105-0.219-0.121 0.044-0.091 0.156-0.051 0.201-0.143-0.126-0.045-0.119 0.048-0.187-0.060zM21.937 8.598c0.062 0.042-0.018 0.040-0.030 0.094-0.055-0.030-0.018-0.108 0.030-0.094zM21.211 8.866c0.026 0.026-0.036 0.063-0.049 0.049-0.026-0.025 0.036-0.063 0.049-0.049zM20.507 8.314c0.037 0.078 0.241-0.011 0.197 0.147-0.098-0.082-0.063 0.005-0.197 0 0-0.049 0-0.098 0-0.147zM19.145 11.167c0.15-0.721 0.3-1.443 0.451-2.164 0.678 0.014 1.359-0.037 2.033 0.049 0.366 0.050 0.765 0.145 1.016 0.437 0.011 0.002 0.020 0.014 0.024 0.028 0.002 0.002 0.003 0.004 0.005 0.006 0.353 0.413 0.333 0.995 0.277 1.503-0.005 0.047-0.011 0.095-0.018 0.142-0.067 0.515-0.193 1.021-0.361 1.511-0.131 0.361-0.292 0.726-0.567 1.003-0.153 0.152-0.343 0.245-0.546 0.307-0.002 0.009-0.005 0.018-0.009 0.029-0.015-0.005-0.029-0.009-0.044-0.014-0.141 0.040-0.286 0.066-0.428 0.089-0.227 0.031-0.454 0.049-0.682 0.060-0.005 0.003-0.016 0.005-0.033 0.002-0.581 0.026-1.164 0.005-1.745 0.012 0.211-0.999 0.418-1.999 0.625-2.999zM18.491 8.659c-0.022 0.071-0.043-0.005-0.098 0 0.012-0.062 0.098-0.050 0.098 0zM18.441 8.511c0.026 0.026-0.035 0.063-0.049 0.049-0.025-0.026 0.035-0.063 0.049-0.049zM18.035 15.667c0.032-0.016 0.049 0.053 0.032 0.062-0.032 0.017-0.049-0.053-0.032-0.062zM16.141 16.428c0.025 0.026-0.035 0.063-0.049 0.049-0.025-0.025 0.035-0.063 0.049-0.049zM16.096 13.539c0 0.056-0.049 0.027-0.049 0 0-0.056 0.049-0.027 0.049 0zM15.998 13.441c0.026 0.026-0.035 0.063-0.049 0.049-0.026-0.026 0.035-0.063 0.049-0.049zM15.944 16.379c0.086-0.159 0.201 0.042 0.049 0.049-0.027 0.001-0.066-0.018-0.049-0.049zM15.899 14.916c0.025 0.026-0.035 0.063-0.049 0.049-0.025-0.025 0.036-0.063 0.049-0.049zM15.875 18.875c0.023 0.023-0.085 0.062-0.098 0.049-0.023-0.023 0.085-0.063 0.098-0.049zM15.879 19.523c-0.032 0.017-0.049-0.053-0.032-0.062 0.032-0.017 0.049 0.053 0.032 0.062zM15.605 14.178c0.057 0.074 0.142 0.12 0.147 0.246-0.086-0.045-0.171-0.091-0.147-0.246zM15.629 19.121c-0.023-0.023 0.085-0.063 0.098-0.049 0.023 0.023-0.085 0.063-0.098 0.049zM15.433 19.17c-0.119 0.162-0.235-0.137 0 0v0zM15.285 19.022c0.023 0.023-0.085 0.063-0.098 0.049-0.023-0.023 0.085-0.063 0.098-0.049zM15.157 20.215c0.183-0.106-0.060-0.114 0.049-0.295-0.060 0.005-0.030-0.072 0 0 0.229-0.043 0.099 0.447-0.049 0.295zM15.268 21.445c-0.053-0.017-0.011-0.055 0.015-0.047 0.053 0.017 0.011 0.055-0.015 0.047zM15.403 21.298c-0.026-0.025 0.035-0.063 0.049-0.049 0.025 0.025-0.035 0.063-0.049 0.049zM15.599 20.855c0.019-0.094 0.063 0.031 0.049 0.098-0.019 0.094-0.063-0.031-0.049-0.098zM15.649 21.101c-0.025-0.026 0.035-0.063 0.049-0.049 0.026 0.026-0.035 0.063-0.049 0.049zM15.754 20.567c-0.006 0.17-0.198 0.042-0.232 0.081-0.043 0.050 0.038 0.178-0.013 0.202-0.078 0.038-0.164-0.202-0.202-0.013-0.031-0.101-0.024-0.272 0.058-0.343 0.007-0.006 0.053 0.012 0.091 0.027-0.091-0.080 0.104-0.237 0.141 0.005 0.055-0.022 0.072-0.053 0.158 0.040 0.017-0.209 0.143 0.035 0 0zM15.796 21.249c-0.025-0.026 0.036-0.063 0.049-0.049 0.025 0.025-0.035 0.062-0.049 0.049zM15.826 20.449c-0.025-0.025 0.035-0.063 0.049-0.049 0.025 0.025-0.035 0.063-0.049 0.049zM15.807 19.913c-0.082-0.203 0.035-0.127 0.104-0.328 0.056 0.063 0.17 0.095 0.081 0.232 0.058 0.013 0.007 0.077 0 0-0.19 0.027 0.053 0.149 0.158 0.153 0.154-0.312 0.357 0.080 0 0-0.133 0.062-0.322-0.004-0.343-0.058zM15.941 19.491c0.032-0.017 0.049 0.053 0.032 0.062-0.032 0.016-0.049-0.053-0.032-0.062zM16.307 17.853c-0.058-0.013-0.007-0.077 0 0 0.058 0.014 0.007 0.077 0 0zM16.327 18.117c-0.013 0.058-0.077 0.007 0 0 0.013-0.058 0.077-0.007 0 0zM16.486 18.426c0.038 0.111 0.201 0.157 0.283 0.245-0.155 0.124-0.375 0.059-0.558 0.132-0.036 0.014-0.043 0.131-0.123 0.064 0.083-0.242 0.365-0.101 0.398-0.441zM16.534 20.511c-0.025-0.026 0.036-0.063 0.049-0.049 0.025 0.025-0.036 0.063-0.049 0.049zM16.256 19.798c-0.143-0.044-0.065-0.201-0.051-0.326 0.146 0.042 0.094 0.186 0.051 0.326zM16.152 18.99c0.083 0.078 0.063 0.248-0.106 0.173 0.011-0.104 0.072-0.114 0.106-0.173zM16.122 20.547c-0.026-0.026 0.035-0.063 0.049-0.049 0.025 0.025-0.036 0.063-0.049 0.049zM16.22 20.399c-0.026-0.025 0.035-0.063 0.049-0.049 0.025 0.026-0.036 0.063-0.049 0.049zM16.184 20.188c0-0-0-0.001-0-0.001-0.018 0.041-0.031 0.086-0.013 0.163-0.016 0-0.033 0-0.049 0-0.003 0.030-0.007 0.058-0.049 0.049 0.005 0.059-0.071 0.030 0 0 0.003-0.030 0.007-0.058 0.049-0.049-0.007-0.121-0.007-0.237 0.049-0.295 0.017 0 0.033 0 0.049 0-0.005-0.060 0.071-0.031 0 0 0 0.003-0.001 0.005-0.001 0.007 0.038-0.020 0.087-0.017 0.103 0.014 0.032 0.062-0.087 0.211-0.139 0.111zM16.318 20.006c-0.025-0.025 0.036-0.063 0.049-0.049 0.025 0.026-0.036 0.063-0.049 0.049zM16.416 18.971c-0.032 0.017-0.049-0.053-0.032-0.062 0.032-0.017 0.049 0.053 0.032 0.062zM16.632 20.757c-0.017 0-0.033 0-0.049 0 0.047 0.204-0.147 0.010 0 0 0.011-0.093-0.055-0.109-0.049-0.197 0.087 0.012 0.112 0.084 0.099 0.197zM17.007 20.301c-0.035 0.253-0.403 0.236-0.393-0.049 0.016 0 0.033 0 0.049 0-0.086-0.236 0.254-0.3 0.344-0.197 0.003 0.184-0.309 0.051-0.344 0.197 0.073 0.209 0.19-0.079 0.344 0.049zM16.958 18.629c-0.026-0.026 0.035-0.063 0.049-0.049 0.026 0.025-0.035 0.063-0.049 0.049zM17.241 18.975c-0.058-0.013-0.007-0.077 0 0 0.209 0.017-0.035 0.143 0 0zM17.343 18.492c-0.032 0.016-0.049-0.053-0.032-0.062 0.032-0.017 0.049 0.053 0.032 0.062zM17.386 18.196c-0.032 0.017-0.049-0.053-0.032-0.062 0.032-0.017 0.050 0.053 0.032 0.062zM17.42 17.278c0.053 0.017 0.011 0.055-0.015 0.047-0.053-0.017-0.011-0.055 0.015-0.047zM17.4 18.186c-0.025-0.025 0.035-0.063 0.049-0.049 0.025 0.025-0.036 0.063-0.049 0.049zM17.91 16.711c0.013-0.058 0.077-0.007 0 0-0.013 0.058-0.077 0.007 0 0zM17.803 15.748c-0.056-0.030-0.018-0.108 0.030-0.094 0.061 0.042-0.018 0.039-0.030 0.094zM17.769 9.653c0.011-0.078 0.057-0.002 0.049 0.049-0.011 0.078-0.057 0.003-0.049-0.049zM17.851 8.954c-0.022 0.071-0.043-0.005-0.098 0 0.012-0.062 0.098-0.050 0.098 0zM17.802 8.807c0.025 0.025-0.036 0.063-0.049 0.049-0.025-0.026 0.036-0.063 0.049-0.049zM17.742 16.915c-0.053 0.098-0.261-0.042-0.281-0.089 0.053-0.098 0.261 0.043 0.281 0.089zM16.561 15.594l0.627-2.972 0.226-1.074c0.099-0.353 0.198-0.706 0.307-1.057-0.042 0.365-0.094 0.728-0.146 1.090l-0.227 1.073-0.453 2.147-0.498 2.359c0.056-0.014 0.135 0.102 0.198 0.111-0.021 0.091-0.137-0.001-0.217-0.023l-0.042 0.198c0.077 0.006 0.062 0.079 0.122 0.091 0.077 0.016 0.16-0.125 0.249 0.028 0.011 0.020-0.040 0.073-0.030 0.094 0.010 0.023 0.066 0.054 0.079 0.077 0.059 0.108 0.143 0.091 0.298 0.198 0.019 0.013 0.052 0.117 0.064 0.124 0.069 0.039 0.122-0.039 0.187 0.059-0.193 0.011-0.364 0.111-0.482 0.053-0.092-0.045-0.008-0.111-0.049-0.17-0.029-0.043-0.15-0.023-0.187-0.060-0.017-0.017 0.020-0.134-0.002-0.156-0.009-0.009-0.017-0.016-0.025-0.023-0.074 0.013-0.138-0.123 0 0 0.013-0.002 0.027-0.009 0.040-0.024 0.035-0.041-0.058-0.129-0.111-0.138s-0.086 0.111-0.17 0.049c0.021-0.052 0.005-0.086 0-0.125l-0.105 0.498c-0.102 0.352-0.198 0.706-0.306 1.057 0.043-0.365 0.098-0.727 0.147-1.090l0.49-2.325c-0.028-0.018-0.066-0.077-0.106-0.109-0.125-0.097-0.15-0.066-0.098-0.295 0.161 0.023 0.099 0.27 0.219 0.334zM17.247 17.171c-0.032 0.017-0.049-0.053-0.032-0.062 0.032-0.017 0.049 0.053 0.032 0.062zM14.571 8.915c0.059-0.005 0.030 0.071 0 0-0.147-0.010 0.047-0.204 0 0zM14.571 9.014c-0.012 0.062-0.098 0.049-0.098 0 0.022-0.072 0.043 0.005 0.098 0zM14.424 9.309c0.025 0.025-0.035 0.063-0.049 0.049-0.025-0.025 0.035-0.063 0.049-0.049zM14.080 9.998c0.098 0.001 0.063 0.134 0.197 0.098-0.056 0.364-0.119 0.207-0.197-0.098zM14.227 10.489c-0.025-0.026 0.035-0.063 0.049-0.049 0.025 0.026-0.036 0.063-0.049 0.049zM14.31 8.708c0.025 0.025-0.036 0.063-0.049 0.049-0.025-0.025 0.036-0.063 0.049-0.049zM14.064 9.151c0.095-0.244 0.339 0.151 0 0v0zM14.113 8.807c0.026 0.025-0.035 0.063-0.049 0.049-0.025-0.026 0.036-0.063 0.049-0.049zM10.484 22.626c0.248 0.011-0.026 0.283 0 0v0zM10.582 22.527c0.025 0.025-0.035 0.063-0.049 0.049-0.025-0.025 0.036-0.063 0.049-0.049zM10.877 22.232c-0.025-0.026 0.035-0.063 0.049-0.049 0.025 0.025-0.035 0.063-0.049 0.049zM11.271 21.249c-0.025-0.026 0.036-0.063 0.049-0.049 0.025 0.025-0.036 0.062-0.049 0.049zM11.369 20.215c-0.025-0.025 0.035-0.063 0.049-0.049 0.025 0.026-0.036 0.063-0.049 0.049zM11.468 20.215c-0.026-0.025 0.036-0.063 0.049-0.049 0.026 0.026-0.035 0.063-0.049 0.049zM11.566 20.314c0.214 0.032 0.159 0.333 0.246 0.492-0.282-0.065-0.102-0.289-0.246-0.492zM11.861 21.2c-0.026-0.026 0.035-0.063 0.049-0.050 0.025 0.026-0.035 0.063-0.049 0.050zM11.96 20.215c0.012-0.062 0.098-0.049 0.098 0-0.044 0.030-0.088 0.060-0.098 0zM12.107 19.773c-0.001 0.001-0.088 0.097-0.049 0.098-0.087-0.002-0.407-0.172-0.541-0.098-0.050 0.114-0.303 0.094-0.443 0.049 0.096-0.069 0.33-0.147 0.443-0.049 0.007-0.082 0.121-0.033 0.197-0.049 0.077-0.016 0.161-0.097 0.197-0.098 0.153-0.006 0.402 0.035 0.443 0.197-0.080 0.078-0.143-0.086-0.246-0.049zM11.173 19.625c0-0.056 0.049-0.027 0.049 0 0 0.056-0.049 0.027-0.049 0zM11.566 19.379c0-0.056 0.049-0.027 0.049 0 0 0.056-0.049 0.027-0.049 0zM11.91 17.904c0.005 0.059-0.071 0.030 0 0-0.005-0.059 0.071-0.030 0 0zM11.934 16.513c0.084-0.197 0.257 0.136 0 0v0zM12.205 19.035c-0.035 0.115-0.222 0.235-0.344 0.147-0.078-0.056-0.050-0.291 0-0.344 0.167 0.013 0.169 0.192 0.344 0.197zM12.083 19.45c-0.032 0.017-0.049-0.053-0.032-0.062 0.032-0.017 0.050 0.053 0.032 0.062zM11.861 19.527c-0.019 0.093-0.063-0.031-0.049-0.098 0.019-0.094 0.063 0.031 0.049 0.098zM11.812 19.281c-0.025 0.054-0.295 0.049-0.147-0.098 0.094-0.094 0.195-0.004 0.147 0.098zM12.285 19.268c0.147 0.010-0.047 0.204 0 0-0.059 0.005-0.030-0.071 0 0zM12.285 19.121c0-0.056 0.049-0.027 0.049 0 0 0.056-0.049 0.027-0.049 0zM12.255 18.986c-0.025-0.025 0.035-0.063 0.049-0.049 0.025 0.026-0.036 0.063-0.049 0.049zM12.347 16.025c-0.029 0.015-0.034-0.1-0.017-0.109 0.029-0.015 0.034 0.1 0.017 0.109zM12.383 19.662c-0.025-0.025 0.035-0.063 0.049-0.050 0.025 0.026-0.036 0.063-0.049 0.050zM12.383 18.973c-0.025-0.026 0.035-0.063 0.049-0.049 0.025 0.025-0.036 0.063-0.049 0.049zM12.501 19.035c-0.026-0.025 0.035-0.063 0.049-0.049 0.026 0.026-0.036 0.063-0.049 0.049zM12.482 18.924c0.012-0.062 0.098-0.050 0.098 0-0.022 0.071-0.043-0.005-0.098 0zM12.629 19.022c0-0.056 0.049-0.027 0.049 0 0 0.056-0.049 0.027-0.049 0zM12.763 12.286c-0.032 0.017-0.049-0.053-0.032-0.062 0.032-0.017 0.049 0.053 0.032 0.062zM12.777 17.793c-0.026-0.026 0.035-0.063 0.049-0.050 0.026 0.026-0.035 0.063-0.049 0.050zM13.238 15.937c-0.011 0.078-0.057 0.002-0.049-0.049 0.011-0.078 0.057-0.002 0.049 0.049zM13.346 14.020c-0.017 0.209-0.143-0.035 0 0 0.014-0.058 0.078-0.007 0 0zM13.578 13.939c-0.032 0.017-0.049-0.053-0.032-0.062 0.032-0.017 0.049 0.053 0.032 0.062zM13.553 13.208c-0.052-0.025-0.012-0.098-0.002-0.156 0.047 0.015 0.093 0.030 0.141 0.045-0.007 0.113-0.111 0.038-0.139 0.111zM13.728 11.199c-0.032 0.016-0.049-0.053-0.032-0.062 0.032-0.017 0.049 0.053 0.032 0.062zM13.726 9.908c0.116 0.158-0.225 0.137 0 0v0zM13.346 10.613c-0.007 0.112-0.111 0.038-0.138 0.111-0.111-0.056 0.055-0.183 0.138-0.111zM13.145 8.522c0.059-0.005 0.030 0.071 0 0-0.059 0.005-0.030-0.071 0 0zM13.758 12.241c-0.096 0.078-0.208 0.020-0.326 0.051-0.092 0.024-0.166 0.145-0.373 0.036 0.122-0.243 0.393-0.199 0.699-0.087zM12.918 8.877c0.053 0.017 0.011 0.055-0.015 0.047-0.053-0.017-0.011-0.055 0.015-0.047zM12.097 10.036c0.025 0.025-0.035 0.063-0.049 0.049-0.025-0.026 0.036-0.063 0.049-0.049zM12.351 12.623l0.226-1.074c0.099-0.353 0.198-0.706 0.307-1.057-0.042 0.365-0.094 0.728-0.146 1.090l-0.227 1.073-0.453 2.147-0.634 3.006c0.020-0.006 0.039-0.009 0.044-0.004 0.014 0.014-0.021 0.034-0.053 0.045l-0.037 0.173c-0.064 0.221-0.126 0.443-0.19 0.665 0.105 0.039 0.177 0.281 0.279 0.2 0.028-0.022 0.117-0.022 0.147-0.049 0.005-0.005-0.033-0.317 0.049-0.394 0.079-0.014 0.085 0.047 0.147 0.049-0.002 0.022-0.003 0.043-0.005 0.064 0.018-0.009 0.038 0.015-0.002 0.023-0.006 0.057-0.015 0.111-0.042 0.159-0.074 0.133-0.279 0.195-0.295 0.295s0.122 0.111 0.098 0.246c-0.071 0.027-0.254-0.058-0.246 0.049-0.146-0.087 0.082-0.208 0.098-0.295-0.072-0.080-0.214-0.013-0.325-0.026-0.007 0.024-0.014 0.047-0.021 0.071 0.003-0.024 0.006-0.049 0.009-0.073-0.013-0.002-0.026-0.006-0.038-0.011-0.087 0.065-0.17 0.127-0.258-0.010 0.121 0.008 0.199-0.069 0.296-0.108 0.007-0.012 0.015-0.024 0.021-0.037 0.027-0.209 0.057-0.418 0.086-0.627-0.005-0.002-0.010-0.005-0.015-0.010-0.019 0.010-0.037 0.011-0.050-0.005 0.001 0.002 0.016-0.030 0.029-0.058-0.001-0.015-0.001-0.033 0.001-0.053 0.007 0 0.014 0.001 0.020 0.002-0.001-0.014-0.003-0.037-0.001-0.038 0.016-0.003 0.027-0.003 0.038-0.001 0.003-0.020 0.006-0.041 0.008-0.061l0.004-0.020c-0.029 0.028-0.076 0.042-0.149 0.033 0.059-0.104 0.097-0.195 0.147-0.394 0.009 0.042 0.031 0.111 0.039 0.181l0.637-3.020 0.454-2.146zM11.689 16.796c-0.063-0.193 0.121 0.163 0 0v0zM11.678 17.154c-0.032 0.017-0.049-0.053-0.032-0.062 0.032-0.017 0.049 0.053 0.032 0.062zM11.468 18.003c0.128-0.030 0.177 0.019 0.147 0.147-0.046-0.052-0.181-0.015-0.147-0.147zM11.527 18.602c-0.032 0.017-0.049-0.053-0.032-0.062 0.031-0.016 0.049 0.053 0.032 0.062zM11.41 18.474c-0.025-0.026 0.035-0.063 0.049-0.049 0.025 0.026-0.035 0.063-0.049 0.049zM11.277 18.575c-0.032 0.017-0.049-0.053-0.032-0.062 0.032-0.017 0.049 0.053 0.032 0.062zM10.287 20.167c0.011-0.038 0.041-0.057 0.098-0.049 0.003-0.030 0.007-0.058 0.049-0.049-0.035-0.15 0.050-0.179 0.049-0.295 0.119 0.045 0.021 0.278-0.049 0.295-0.003 0.030-0.007 0.058-0.049 0.049-0.011 0.038-0.041 0.057-0.098 0.049 0.005 0.059-0.071 0.030 0 0zM10.238 21.741c-0.025-0.025 0.035-0.063 0.049-0.049 0.025 0.025-0.036 0.063-0.049 0.049zM10.7 18.443c0.012 0.157-0.358-0.048-0.232 0.081-0.151 0.147-0.083-0.204 0.013-0.203 0.114 0.020 0.178 0.065 0.219 0.122zM10.574 17.834c0.025 0.026-0.035 0.063-0.049 0.050-0.025-0.026 0.035-0.063 0.049-0.050zM10.779 16.822c0.049 0 0.098 0 0.147 0 0.070 0.383-0.396 0.167-0.147 0-0.059 0.005-0.030-0.071 0 0zM10.908 18.707c0.001 0.007 0.001 0.014-0.001 0.020-0.009 0.066-0.044 0.021-0.049-0.025-0.010-0.003-0.020-0.006-0.030-0.012-0.015 0.097-0.093 0.073-0.139 0.111-0.083-0.112 0.035-0.268 0.139-0.111 0.044-0.118 0.126-0.16 0.247-0.128-0.060 0.040-0.091 0.135-0.167 0.145zM10.971 18.89c-0.032 0.017-0.049-0.053-0.032-0.062 0.032-0.016 0.049 0.053 0.032 0.062zM10.754 18.924c-0.030 0.015-0.034-0.1-0.017-0.109 0.029-0.015 0.034 0.1 0.017 0.109zM10.582 21.052c-0.291 0.22-0.266-0.478 0-0.295 0.204-0.047 0.010 0.147 0 0-0.13 0.061-0.151 0.129-0.147 0.197 0.002 0.035 0.156 0.043 0.147 0.098zM10.536 18.958c0.032-0.017 0.049 0.053 0.032 0.062-0.032 0.017-0.050-0.053-0.032-0.062zM10.939 18.24c0.010 0.006 0.022 0.010 0.037 0.009-0.012 0.062-0.098 0.049-0.098 0 0.003-0.008 0.005-0.014 0.008-0.019-0.107-0.036-0.012-0.133 0.022-0.191 0.106-0.176 0.265 0.219 0.032 0.201zM10.976 18.445c-0.025-0.026 0.036-0.063 0.049-0.049 0.025 0.026-0.036 0.063-0.049 0.049zM10.877 18.052c-0.065-0.018-0.077-0.087-0.147-0.098 0.008-0.058 0.090-0.041 0.147-0.049 0 0.049 0 0.098 0 0.147zM11.066 18.080c-0.025-0.025 0.035-0.063 0.049-0.049 0.025 0.026-0.036 0.063-0.049 0.049zM11.025 17.658c-0.031-0.001-0.149-0.153-0.148-0.147-0.021-0.064 0.084-0.204 0-0.295 0.203 0.104 0.459-0.050 0.344 0.197-0.018 0.038-0.136 0.248-0.197 0.246zM11.123 16.723c-0.041-0.007-0.053 0.049-0.049 0.049-0.069-0.014-0.126-0.228-0.147-0.049-0.101-0.215 0.266-0.122 0.394-0.049 0.001 0.143-0.138 0.059-0.197 0.049zM10.813 15.386c0.038-0.085 0.039-0.182 0.147-0.246 0.001 0.097 0 0.194-0.147 0.246zM10.711 17.448c0.025 0.026-0.035 0.063-0.049 0.049-0.025-0.025 0.036-0.063 0.049-0.049zM10.613 17.891c0.165-0.119-0.119 0.165 0 0v0zM10.828 21.691c-0.152-0.001-0.361 0.174-0.492 0 0.084-0.057 0.313-0.062 0.492 0zM11.517 16.379c-0.008 0.058-0.090 0.041-0.147 0.049 0.008-0.057 0.090-0.041 0.147-0.049zM11.582 15.833c0.071 0.034-0.015 0.055-0.062 0.032-0.071-0.034 0.015-0.055 0.062-0.032zM11.726 11.157c0.050-0.032 0.060 0.049 0 0-0.050 0.033-0.061-0.049 0 0zM11.689 12.254c0.029-0.015 0.034 0.1 0.017 0.109-0.029 0.015-0.034-0.1-0.017-0.109zM11.605 13.845c0.137-0.058 0.042 0.065 0.026 0.154-0.027 0.156 0.013 0.163-0.213 0.226-0.060-0.163 0.226-0.223 0.187-0.38zM10.739 14.429c0.044-0.157-0.203-0.443 0.196-0.454-0.12 0.185 0.070 0.312-0.073 0.39 0.081 0.081 0.092-0.058 0.124-0.064 0.034-0.006 0.111 0.059 0.141 0.045 0.051-0.025 0.029-0.199 0.139-0.111-0.070 0.14 0.044 0.216-0.090 0.281 0.039 0.084 0.093 0.043 0.234 0.074-0.026 0.091-0.033 0.141-0.041 0.181 0.013 0.007 0.023 0.018 0.021 0.026-0.004 0.014-0.017 0.016-0.030 0.013-0.010 0.038-0.027 0.078-0.070 0.155-0.141-0.058-0.25-0.132-0.345-0.213-0.185-0.030-0.026 0.234-0.262 0.175 0.161-0.145 0.043-0.215-0.113-0.294-0.037-0.145 0.142-0.108 0.169-0.205zM10.56 14.991c0.032-0.017 0.049 0.053 0.032 0.062-0.032 0.017-0.049-0.053-0.032-0.062zM10.662 17.055c-0.096 0.223-0.23 0.199-0.443 0.148 0.015-0.174 0.294-0.26 0.443-0.148zM10.336 19.871c-0.053 0.046-0.015 0.181-0.147 0.147 0.053-0.046 0.015-0.181 0.147-0.147zM10.238 20.658c0.059-0.005 0.030 0.072 0 0-0.149 0.018-0.102-0.16-0.147-0.246 0.178-0.047 0.050 0.213 0.147 0.246zM10.144 18.73c0.116 0.159-0.225 0.137 0 0v0zM10.108 18.357c0.032-0.017 0.049 0.053 0.032 0.062-0.032 0.017-0.049-0.053-0.032-0.062zM10.091 21.741c-0.026-0.025 0.035-0.063 0.049-0.049 0.025 0.025-0.035 0.063-0.049 0.049zM10.14 18.003c0.002 0.067-0.023 0.108-0.049 0.147-0.077-0.013-0.034-0.107 0-0.147 0.016 0 0.033 0 0.049 0-0.005-0.060 0.071-0.031 0 0zM9.973 17.694c0.010-0.147 0.204 0.047 0 0-0.010 0.147-0.204-0.047 0 0zM10.072 17.985c-0.198 0.096-0.214-0.23 0 0v0zM9.992 21.937c0.091 0.069 0.227 0.072 0.246 0s-0.143-0.043-0.098-0.147c0.314 0.001 0.106 0.219 0.246 0.394 0.1-0.082 0.253-0.052 0.246-0.049 0.012-0.004 0.073-0.101 0.049-0.098 0.093-0.010 0.109 0.054 0.197 0.049-0.126 0.286-0.129 0.204-0.049 0.443-0.063-0.103-0.228-0.045-0.344-0.098-0.048-0.022-0.119-0.162-0.197-0.197-0.037-0.017-0.107 0.006-0.148 0-0.090-0.015-0.16-0.157-0.147-0.295-0.060 0.005-0.030-0.071 0 0zM9.648 20.855c0.025 0.025-0.036 0.063-0.049 0.049-0.025-0.025 0.035-0.063 0.049-0.049zM9.648 20.708c0.025 0.025-0.036 0.063-0.049 0.049-0.025-0.026 0.035-0.063 0.049-0.049zM9.5 21.396c0.038-0.044 0.053-0.111 0.049-0.197 0.14 0.006 0.094 0.21-0.049 0.197zM9.549 22.626c-0.025-0.026 0.035-0.063 0.049-0.049 0.025 0.026-0.035 0.063-0.049 0.049zM9.599 22.38c0.022-0.071 0.043 0.005 0.098 0-0.012 0.062-0.098 0.050-0.098 0zM9.599 19.871c0.049 0 0.098 0 0.147 0 0 0.049 0 0.098 0 0.147-0.107 0.009-0.156-0.040-0.147-0.147zM9.599 20.56c0.025 0.026-0.035 0.063-0.049 0.049-0.025-0.026 0.036-0.063 0.049-0.049zM9.549 20.855c0.025 0.025-0.036 0.063-0.049 0.049-0.025-0.025 0.036-0.063 0.049-0.049zM9.402 20.904c-0.021 0.061-0.063 0.101-0.147 0.098 0.022-0.061 0.063-0.101 0.147-0.098zM8.498 22.76c-0.005-0.059 0.071-0.030 0 0-0.005 0.077 0.006 0.171-0.098 0.147 0.024-0.058 0.053-0.111 0.098-0.147zM7.385 20.904c0.188-0.010 0.165 0.285 0 0.295 0-0.099 0-0.197 0-0.295zM6.893 23.118c0.005 0.060-0.071 0.030 0 0-0.005-0.059 0.071-0.030 0 0zM7.041 21.986c-0.009 0.074 0.018 0.181-0.049 0.197-0.026 0.138-0.072 0.255-0.098 0.393-0.024 0.058-0.083-0.398-0.137-0.319-0.004 0.007-0.008 0.015-0.011 0.024 0.004-0.011 0.007-0.019 0.011-0.024 0.034-0.060 0.106-0.066 0.235-0.074 0.009-0.073-0.018-0.181 0.049-0.197 0.010-0.248 0.283 0.026 0 0zM6.844 21.79c0.068-0.023 0.024 0.139 0 0.147-0.086 0.029 0-0.098 0-0.098 0.005-0.005-0.005-0.048 0-0.049zM7.189 22.38c0.152 0.16-0.154 0.273 0 0v0zM7.336 21.544c-0.353 0.041-0.501-0.123-0.59-0.344 0.028-0.133 0.224 0.013 0.295 0.049 0.102 0.052 0.381 0.022 0.295 0.295zM6.99 20.227c0.033 0.050-0.049 0.061 0 0-0.032-0.050 0.049-0.060 0 0zM6.943 21.003c0.025 0.026-0.036 0.063-0.049 0.049-0.025-0.025 0.036-0.063 0.049-0.049zM6.795 20.609c0.011-0.038 0.001-0.097 0.049-0.098-0.047-0.205 0.147-0.010 0 0-0.011 0.038-0.002 0.097-0.049 0.098-0.003 0.030-0.007 0.059-0.049 0.049 0.005 0.059-0.071 0.030 0 0 0.003-0.030 0.007-0.058 0.049-0.049zM6.776 20.35c-0.012 0.062-0.098 0.050-0.098 0 0.022-0.071 0.043 0.005 0.098 0zM6.008 21.101c0.003 0.184-0.309 0.051-0.344 0.197 0.073 0.209 0.19-0.078 0.344 0.050-0.035 0.253-0.403 0.236-0.393-0.050 0.016 0 0.033 0 0.049 0-0.086-0.236 0.254-0.3 0.344-0.197zM5.665 22.334c0.018 0.066-0.089 0.094-0.15 0.136-0.042-0.107 0.062-0.162 0.15-0.136zM5.123 21.593c-0.026-0.026 0.035-0.063 0.049-0.050 0.025 0.025-0.036 0.063-0.049 0.050zM5.226 21.62c0.011-0.034 0.072 0.002 0.066 0.020-0.010 0.034-0.071-0.002-0.066-0.020zM5.443 21.504c-0.087 0.167-0.228 0.056-0.218-0.057-0.001-0.001-0.003-0.001-0.004-0.002-0.015-0.015-0-0.033 0.017-0.044 0.021-0.042 0.069-0.078 0.155-0.094-0.049 0.117 0.012 0.269 0.050 0.197zM5.369 21.003c0.025 0.026-0.035 0.063-0.049 0.049-0.025-0.025 0.036-0.063 0.049-0.049zM5.319 20.954c-0.044 0.030-0.088 0.059-0.098 0 0.012-0.062 0.098-0.050 0.098 0zM5.172 21.101c0.017 0 0.033 0 0.049 0-0.005-0.059 0.071-0.030 0 0 0.001 0.115-0.085 0.145-0.049 0.295-0.016 0-0.033 0-0.049 0-0.003 0.030-0.007 0.058-0.049 0.049 0.005 0.059-0.071 0.030 0 0 0.003-0.030 0.007-0.058 0.049-0.049-0.007-0.121-0.008-0.237 0.049-0.295z" fill="#000000"></path>
</svg>
