<?xml version="1.0" encoding="utf-8"?>
<!-- Generated by IcoMoon.io -->
<!DOCTYPE svg PUBLIC "-//W3C//DTD SVG 1.1//EN" "http://www.w3.org/Graphics/SVG/1.1/DTD/svg11.dtd">
<svg version="1.1" xmlns="http://www.w3.org/2000/svg" xmlns:xlink="http://www.w3.org/1999/xlink" width="32" height="32" viewBox="0 0 32 32">
<g id="icomoon-ignore">
</g>
<path d="M22.032 4.877v0.463h-1.652v-0.383c0-2.426-1.994-4.4-4.444-4.4s-4.444 1.974-4.444 4.4v0.383h-1.692v-0.463h-0.533v6.137c0 3.258 2.765 5.93 6.242 6.125v13.267h-3.765v0.533h8.385v-0.533h-4.087v-13.258c3.608-0.062 6.523-2.789 6.523-6.134v-6.137h-0.533zM19.357 12.946h-6.841c-0.275-0.49-0.442-1.045-0.478-1.634h7.797c-0.036 0.59-0.203 1.145-0.478 1.634zM18.994 13.479c-0.717 0.89-1.82 1.463-3.058 1.463s-2.341-0.573-3.058-1.463h6.116zM12.041 4.668h7.791c0.007 0.096 0.015 0.192 0.015 0.29v1.365h-7.821v-1.365c0-0.098 0.007-0.194 0.015-0.29zM19.756 4.135h-7.638c0.11-0.501 0.319-0.965 0.605-1.373h6.429c0.286 0.408 0.494 0.873 0.605 1.373zM19.847 10.778h-7.821v-1.634h7.821v1.634zM19.847 8.61h-7.821v-1.755h7.821v1.755zM15.937 1.091c1.080 0 2.058 0.435 2.767 1.137h-5.533c0.708-0.702 1.687-1.137 2.767-1.137zM15.917 16.618c-3.372 0-6.116-2.514-6.116-5.604v-5.141h1.692v5.202c0 2.426 1.994 4.4 4.444 4.4 1.555 0 2.923-0.796 3.718-1.997h0.021v-0.034c0.444-0.685 0.705-1.497 0.705-2.369v-5.202h1.652v5.141c0 3.090-2.743 5.604-6.116 5.604z" fill="#000000"></path>
</svg>
