<?xml version="1.0" encoding="utf-8"?>
<!-- Generated by IcoMoon.io -->
<!DOCTYPE svg PUBLIC "-//W3C//DTD SVG 1.1//EN" "http://www.w3.org/Graphics/SVG/1.1/DTD/svg11.dtd">
<svg version="1.1" xmlns="http://www.w3.org/2000/svg" xmlns:xlink="http://www.w3.org/1999/xlink" width="32" height="32" viewBox="0 0 32 32">
<g id="icomoon-ignore">
</g>
<path d="M11.292 6.819v18.906h1.6v-12.744l13.383-3.026v11.095h1.6v-17.773l-16.583 3.542zM12.892 11.341v-3.227l13.384-2.858v3.058l-13.384 3.026z" fill="rgb(35, 31, 32)"></path>
<path d="M5.476 25.317c0 2.067 1.663 3.75 3.708 3.75h0.8v-1.6h-0.8c-1.162 0-2.108-0.965-2.108-2.15s0.946-2.15 2.108-2.15h0.8v-1.6h-0.8c-2.045 0-3.708 1.683-3.708 3.75z" fill="rgb(35, 31, 32)"></path>
<path d="M20.459 21.317c0 2.067 1.663 3.75 3.709 3.75h0.8v-1.6h-0.8c-1.162 0-2.109-0.965-2.109-2.15s0.946-2.15 2.109-2.15h0.8v-1.6h-0.8c-2.046 0-3.709 1.683-3.709 3.75z" fill="rgb(35, 31, 32)"></path>
</svg>
