<?xml version="1.0" encoding="utf-8"?>
<!-- Generated by IcoMoon.io -->
<!DOCTYPE svg PUBLIC "-//W3C//DTD SVG 1.1//EN" "http://www.w3.org/Graphics/SVG/1.1/DTD/svg11.dtd">
<svg version="1.1" xmlns="http://www.w3.org/2000/svg" xmlns:xlink="http://www.w3.org/1999/xlink" width="32" height="32" viewBox="0 0 32 32">
<g id="icomoon-ignore">
</g>
<path d="M16.676 3.2c-5.294 0-9.6 4.15-9.6 9.251 0 1.692 0.479 3.348 1.398 4.81l8.209 12.171 8.213-12.2c0.902-1.439 1.38-3.093 1.38-4.781 0-5.101-4.306-9.251-9.6-9.251zM23.554 16.36l-6.873 10.208-6.867-10.181c-0.746-1.185-1.139-2.546-1.139-3.936 0-4.219 3.589-7.651 8-7.651s8 3.433 8 7.651c0.001 1.387-0.392 2.746-1.121 3.909z" fill="#000000"></path>
<path d="M20.076 12.091c0 1.823-1.477 3.3-3.3 3.3s-3.3-1.477-3.3-3.3c0-1.823 1.477-3.3 3.3-3.3s3.3 1.477 3.3 3.3z" fill="#000000"></path>
</svg>
