<?xml version="1.0" encoding="utf-8"?>
<!-- Generated by IcoMoon.io -->
<!DOCTYPE svg PUBLIC "-//W3C//DTD SVG 1.1//EN" "http://www.w3.org/Graphics/SVG/1.1/DTD/svg11.dtd">
<svg version="1.1" xmlns="http://www.w3.org/2000/svg" xmlns:xlink="http://www.w3.org/1999/xlink" width="32" height="32" viewBox="0 0 32 32">
<g id="icomoon-ignore">
</g>
<path d="M28.223 9.296c0-0.005 0.002-0.010 0.002-0.014h-24.485c0 0.005 0.002 0.010 0.002 0.014 0 0.891-0.718 1.614-1.607 1.623v10.165c0.863 0.038 1.553 0.745 1.553 1.618 0 0.006-0.002 0.012-0.002 0.018h24.486c0-0.006-0.002-0.012-0.002-0.018 0-0.898 0.727-1.625 1.625-1.625 0.025 0 0.047 0.006 0.072 0.007v-10.165c-0.006 0-0.012 0.002-0.018 0.002-0.898 0-1.626-0.728-1.626-1.625zM28.266 19.862c-0.536 0.29-0.982 0.727-1.282 1.257h-22.111c-0.272-0.482-0.665-0.886-1.139-1.173v-7.866c0.493-0.288 0.904-0.703 1.187-1.2h22.119c0.29 0.51 0.714 0.935 1.226 1.224v7.758z" fill="#000000"></path>
<path d="M5.466 12.6h3.334v1.6h-3.334v-1.6z" fill="#000000"></path>
<path d="M5.466 15.2h3.334v1.6h-3.334v-1.6z" fill="#000000"></path>
<path d="M5.466 17.8h3.334v1.6h-3.334v-1.6z" fill="#000000"></path>
<path d="M10.067 12.6h1.4v1.6h-1.4v-1.6z" fill="#000000"></path>
<path d="M10.067 15.2h1.4v1.6h-1.4v-1.6z" fill="#000000"></path>
<path d="M10.067 17.8h1.4v1.6h-1.4v-1.6z" fill="#000000"></path>
</svg>
